<svg width="46" height="46" viewBox="0 0 46 46" fill="none" xmlns="http://www.w3.org/2000/svg">
<rect width="46" height="46" rx="8" fill="#E83E91"/>
<path d="M11.3536 24.0607L12.055 24.7621C12.6404 25.3475 13.5894 25.3479 14.1753 24.763L20.1468 18.8023C20.4619 18.4877 21 18.7109 21 19.1562V34C21 34.8284 21.6716 35.5 22.5 35.5H23.5C24.3284 35.5 25 34.8284 25 34V19.1623C25 18.7166 25.539 18.4936 25.8539 18.809L31.809 24.7749C32.3947 25.3615 33.3451 25.362 33.9313 24.7758L34.6464 24.0607C35.2322 23.4749 35.2322 22.5251 34.6464 21.9393L24.0607 11.3536C23.4749 10.7678 22.5251 10.7678 21.9393 11.3536L11.3536 21.9393C10.7678 22.5251 10.7678 23.4749 11.3536 24.0607Z" fill="white" stroke="white"/>
</svg>
