<svg id="Layer_1" data-name="Layer 1" xmlns="http://www.w3.org/2000/svg" viewBox="0 0 1442.58 641.86"><defs><style>.cls-1{opacity:0.1;}.cls-2,.cls-3{fill:#00cba9;}.cls-3{opacity:0.2;}</style></defs><g class="cls-1"><polygon class="cls-2" points="1442.58 0 1440 0 1440 224.86 1442.58 224 1442.58 0"/><path class="cls-2" d="M1152,256c-96-32-192-128-288-144s-192,48-288,58.7c-96,10.3-192-31.7-288-32-96,.3-192,42.3-240,64L0,224V641.86H1437.42v-417L1392,240C1344,256,1248,288,1152,256Z" transform="translate(2.58)"/></g><path class="cls-3" d="M-2.58,614.09h360c120,0,240,0,360-37.06,120-36.71,240-111.34,360-134.17,120-23.17,240,4.6,300,18.49l60,13.88V641.86H-2.58Z" transform="translate(2.58)"/></svg>