<svg width="900" height="391" viewBox="0 0 900 391" fill="none" xmlns="http://www.w3.org/2000/svg">
<rect width="900" height="391" fill="white"/>
<circle cx="299.5" cy="185.5" r="131.5" stroke="#575757" stroke-width="2"/>
<rect width="183" height="36" transform="translate(368 189)" fill="#171717"/>
<path d="M383.432 207.048V202.856H386.408C387.272 202.856 387.901 203.037 388.296 203.4C388.701 203.752 388.904 204.269 388.904 204.952C388.904 205.635 388.701 206.157 388.296 206.52C387.901 206.883 387.272 207.059 386.408 207.048H383.432ZM381.912 201.576V213H383.432V208.328H386.92C388.072 208.339 388.941 208.045 389.528 207.448C390.125 206.851 390.424 206.019 390.424 204.952C390.424 203.885 390.125 203.059 389.528 202.472C388.941 201.875 388.072 201.576 386.92 201.576H381.912ZM392.015 204.728V213H393.375V209.32C393.375 208.787 393.428 208.317 393.535 207.912C393.642 207.496 393.812 207.144 394.047 206.856C394.282 206.568 394.591 206.349 394.975 206.2C395.359 206.051 395.823 205.976 396.367 205.976V204.536C395.631 204.515 395.023 204.664 394.543 204.984C394.063 205.304 393.658 205.8 393.327 206.472H393.295V204.728H392.015ZM398.102 208.872C398.102 208.371 398.166 207.928 398.294 207.544C398.433 207.149 398.619 206.819 398.854 206.552C399.089 206.285 399.361 206.083 399.67 205.944C399.99 205.805 400.326 205.736 400.678 205.736C401.03 205.736 401.361 205.805 401.67 205.944C401.99 206.083 402.267 206.285 402.502 206.552C402.737 206.819 402.918 207.149 403.046 207.544C403.185 207.928 403.254 208.371 403.254 208.872C403.254 209.373 403.185 209.821 403.046 210.216C402.918 210.6 402.737 210.925 402.502 211.192C402.267 211.448 401.99 211.645 401.67 211.784C401.361 211.923 401.03 211.992 400.678 211.992C400.326 211.992 399.99 211.923 399.67 211.784C399.361 211.645 399.089 211.448 398.854 211.192C398.619 210.925 398.433 210.6 398.294 210.216C398.166 209.821 398.102 209.373 398.102 208.872ZM396.662 208.872C396.662 209.48 396.747 210.045 396.918 210.568C397.089 211.091 397.345 211.549 397.686 211.944C398.027 212.328 398.449 212.632 398.95 212.856C399.451 213.069 400.027 213.176 400.678 213.176C401.339 213.176 401.915 213.069 402.406 212.856C402.907 212.632 403.329 212.328 403.67 211.944C404.011 211.549 404.267 211.091 404.438 210.568C404.609 210.045 404.694 209.48 404.694 208.872C404.694 208.264 404.609 207.699 404.438 207.176C404.267 206.643 404.011 206.184 403.67 205.8C403.329 205.405 402.907 205.096 402.406 204.872C401.915 204.648 401.339 204.536 400.678 204.536C400.027 204.536 399.451 204.648 398.95 204.872C398.449 205.096 398.027 205.405 397.686 205.8C397.345 206.184 397.089 206.643 396.918 207.176C396.747 207.699 396.662 208.264 396.662 208.872ZM407.289 208.936C407.289 208.531 407.332 208.136 407.417 207.752C407.503 207.368 407.641 207.027 407.833 206.728C408.025 206.429 408.281 206.189 408.601 206.008C408.921 205.827 409.311 205.736 409.769 205.736C410.239 205.736 410.639 205.827 410.969 206.008C411.3 206.179 411.567 206.408 411.769 206.696C411.983 206.984 412.137 207.32 412.233 207.704C412.329 208.077 412.377 208.467 412.377 208.872C412.377 209.256 412.329 209.635 412.233 210.008C412.148 210.381 412.004 210.717 411.801 211.016C411.599 211.304 411.337 211.539 411.017 211.72C410.697 211.901 410.308 211.992 409.849 211.992C409.412 211.992 409.028 211.907 408.697 211.736C408.377 211.565 408.111 211.336 407.897 211.048C407.695 210.76 407.54 210.435 407.433 210.072C407.337 209.699 407.289 209.32 407.289 208.936ZM413.689 213V201.576H412.329V205.832H412.297C412.148 205.587 411.961 205.384 411.737 205.224C411.524 205.053 411.295 204.92 411.049 204.824C410.804 204.717 410.559 204.643 410.313 204.6C410.068 204.557 409.839 204.536 409.625 204.536C408.996 204.536 408.441 204.653 407.961 204.888C407.492 205.112 407.097 205.421 406.777 205.816C406.468 206.2 406.233 206.653 406.073 207.176C405.924 207.699 405.849 208.253 405.849 208.84C405.849 209.427 405.929 209.981 406.089 210.504C406.249 211.027 406.484 211.485 406.793 211.88C407.113 212.275 407.508 212.589 407.977 212.824C408.457 213.059 409.017 213.176 409.657 213.176C410.233 213.176 410.761 213.075 411.241 212.872C411.721 212.669 412.073 212.339 412.297 211.88H412.329V213H413.689ZM422.63 213V204.728H421.27V209.4C421.27 209.773 421.216 210.12 421.11 210.44C421.014 210.749 420.864 211.021 420.662 211.256C420.459 211.491 420.203 211.672 419.894 211.8C419.595 211.928 419.238 211.992 418.822 211.992C418.299 211.992 417.888 211.843 417.59 211.544C417.291 211.245 417.142 210.84 417.142 210.328V204.728H415.782V210.168C415.782 210.616 415.824 211.027 415.91 211.4C416.006 211.763 416.166 212.077 416.39 212.344C416.614 212.611 416.907 212.819 417.27 212.968C417.632 213.107 418.086 213.176 418.63 213.176C419.238 213.176 419.766 213.059 420.214 212.824C420.662 212.579 421.03 212.2 421.318 211.688H421.35V213H422.63ZM430.288 207.384H431.696C431.643 206.893 431.515 206.472 431.312 206.12C431.11 205.757 430.848 205.459 430.528 205.224C430.219 204.989 429.856 204.819 429.44 204.712C429.035 204.595 428.598 204.536 428.128 204.536C427.478 204.536 426.907 204.653 426.416 204.888C425.926 205.112 425.515 205.427 425.184 205.832C424.864 206.227 424.624 206.696 424.464 207.24C424.304 207.773 424.224 208.349 424.224 208.968C424.224 209.587 424.304 210.157 424.464 210.68C424.635 211.192 424.88 211.635 425.2 212.008C425.531 212.381 425.936 212.669 426.416 212.872C426.907 213.075 427.467 213.176 428.096 213.176C429.152 213.176 429.984 212.899 430.592 212.344C431.211 211.789 431.595 211 431.744 209.976H430.352C430.267 210.616 430.032 211.112 429.648 211.464C429.275 211.816 428.752 211.992 428.08 211.992C427.654 211.992 427.286 211.907 426.976 211.736C426.667 211.565 426.416 211.341 426.224 211.064C426.032 210.776 425.888 210.451 425.792 210.088C425.707 209.725 425.664 209.352 425.664 208.968C425.664 208.552 425.707 208.152 425.792 207.768C425.878 207.373 426.016 207.027 426.208 206.728C426.411 206.429 426.678 206.189 427.008 206.008C427.339 205.827 427.75 205.736 428.24 205.736C428.816 205.736 429.275 205.88 429.616 206.168C429.958 206.456 430.182 206.861 430.288 207.384ZM435.154 204.728V202.248H433.794V204.728H432.386V205.928H433.794V211.192C433.794 211.576 433.832 211.885 433.906 212.12C433.981 212.355 434.093 212.536 434.242 212.664C434.402 212.792 434.605 212.883 434.85 212.936C435.106 212.979 435.41 213 435.762 213H436.802V211.8H436.178C435.965 211.8 435.789 211.795 435.65 211.784C435.522 211.763 435.421 211.725 435.346 211.672C435.272 211.619 435.218 211.544 435.186 211.448C435.165 211.352 435.154 211.224 435.154 211.064V205.928H436.802V204.728H435.154ZM441.737 201.304L437.017 213.256H438.169L442.905 201.304H441.737ZM452.985 208.872V201.576H451.465V208.872C451.465 209.896 451.209 210.675 450.697 211.208C450.196 211.731 449.46 211.992 448.489 211.992C447.465 211.992 446.681 211.731 446.137 211.208C445.593 210.675 445.321 209.896 445.321 208.872V201.576H443.801V208.872C443.801 210.397 444.212 211.512 445.033 212.216C445.865 212.909 447.017 213.256 448.489 213.256C449.929 213.256 451.039 212.893 451.817 212.168C452.596 211.432 452.985 210.333 452.985 208.872ZM458.132 207.128L454.164 213H455.86L459.028 208.28L462.1 213H463.956L459.94 207.128L463.716 201.576H462.02L459.044 206.04L456.196 201.576H454.372L458.132 207.128ZM476.75 212.968C476.516 213.107 476.19 213.176 475.774 213.176C475.422 213.176 475.14 213.08 474.926 212.888C474.724 212.685 474.622 212.36 474.622 211.912C474.249 212.36 473.812 212.685 473.31 212.888C472.82 213.08 472.286 213.176 471.71 213.176C471.337 213.176 470.98 213.133 470.638 213.048C470.308 212.963 470.02 212.829 469.774 212.648C469.529 212.467 469.332 212.232 469.182 211.944C469.044 211.645 468.974 211.288 468.974 210.872C468.974 210.403 469.054 210.019 469.214 209.72C469.374 209.421 469.582 209.181 469.838 209C470.105 208.808 470.404 208.664 470.734 208.568C471.076 208.472 471.422 208.392 471.774 208.328C472.148 208.253 472.5 208.2 472.83 208.168C473.172 208.125 473.47 208.072 473.726 208.008C473.982 207.933 474.185 207.832 474.334 207.704C474.484 207.565 474.558 207.368 474.558 207.112C474.558 206.813 474.5 206.573 474.382 206.392C474.276 206.211 474.132 206.072 473.95 205.976C473.78 205.88 473.582 205.816 473.358 205.784C473.145 205.752 472.932 205.736 472.718 205.736C472.142 205.736 471.662 205.848 471.278 206.072C470.894 206.285 470.686 206.696 470.654 207.304H469.294C469.316 206.792 469.422 206.36 469.614 206.008C469.806 205.656 470.062 205.373 470.382 205.16C470.702 204.936 471.065 204.776 471.47 204.68C471.886 204.584 472.329 204.536 472.798 204.536C473.172 204.536 473.54 204.563 473.902 204.616C474.276 204.669 474.612 204.781 474.91 204.952C475.209 205.112 475.449 205.341 475.63 205.64C475.812 205.939 475.902 206.328 475.902 206.808V211.064C475.902 211.384 475.918 211.619 475.95 211.768C475.993 211.917 476.121 211.992 476.334 211.992C476.452 211.992 476.59 211.965 476.75 211.912V212.968ZM474.542 208.728C474.372 208.856 474.148 208.952 473.87 209.016C473.593 209.069 473.3 209.117 472.99 209.16C472.692 209.192 472.388 209.235 472.078 209.288C471.769 209.331 471.492 209.405 471.246 209.512C471.001 209.619 470.798 209.773 470.638 209.976C470.489 210.168 470.414 210.435 470.414 210.776C470.414 211 470.457 211.192 470.542 211.352C470.638 211.501 470.756 211.624 470.894 211.72C471.044 211.816 471.214 211.885 471.406 211.928C471.598 211.971 471.801 211.992 472.014 211.992C472.462 211.992 472.846 211.933 473.166 211.816C473.486 211.688 473.748 211.533 473.95 211.352C474.153 211.16 474.302 210.957 474.398 210.744C474.494 210.52 474.542 210.312 474.542 210.12V208.728ZM478.096 201.576V213H479.456V201.576H478.096ZM483.003 203.24V201.576H481.643V203.24H483.003ZM481.643 204.728V213H483.003V204.728H481.643ZM492.246 212.296V204.728H490.966V205.912H490.95C490.705 205.453 490.363 205.112 489.926 204.888C489.489 204.653 489.009 204.536 488.486 204.536C487.771 204.536 487.169 204.675 486.678 204.952C486.187 205.219 485.793 205.565 485.494 205.992C485.195 206.408 484.982 206.877 484.854 207.4C484.726 207.912 484.662 208.413 484.662 208.904C484.662 209.469 484.737 210.008 484.886 210.52C485.046 211.021 485.281 211.464 485.59 211.848C485.899 212.221 486.283 212.52 486.742 212.744C487.201 212.968 487.739 213.08 488.358 213.08C488.891 213.08 489.393 212.963 489.862 212.728C490.342 212.483 490.699 212.104 490.934 211.592H490.966V212.136C490.966 212.595 490.918 213.016 490.822 213.4C490.737 213.784 490.593 214.109 490.39 214.376C490.187 214.653 489.931 214.867 489.622 215.016C489.313 215.176 488.934 215.256 488.486 215.256C488.262 215.256 488.027 215.229 487.782 215.176C487.537 215.133 487.307 215.059 487.094 214.952C486.891 214.845 486.715 214.707 486.566 214.536C486.427 214.365 486.353 214.157 486.342 213.912H484.982C485.003 214.36 485.121 214.739 485.334 215.048C485.547 215.357 485.814 215.608 486.134 215.8C486.465 215.992 486.827 216.131 487.222 216.216C487.627 216.301 488.022 216.344 488.406 216.344C489.729 216.344 490.699 216.008 491.318 215.336C491.937 214.664 492.246 213.651 492.246 212.296ZM488.438 211.896C487.99 211.896 487.617 211.805 487.318 211.624C487.019 211.432 486.779 211.187 486.598 210.888C486.417 210.579 486.289 210.237 486.214 209.864C486.139 209.491 486.102 209.117 486.102 208.744C486.102 208.349 486.145 207.971 486.23 207.608C486.326 207.245 486.47 206.925 486.662 206.648C486.865 206.371 487.121 206.152 487.43 205.992C487.739 205.821 488.113 205.736 488.55 205.736C488.977 205.736 489.339 205.821 489.638 205.992C489.937 206.163 490.177 206.392 490.358 206.68C490.55 206.957 490.689 207.272 490.774 207.624C490.859 207.976 490.902 208.333 490.902 208.696C490.902 209.08 490.854 209.464 490.758 209.848C490.673 210.232 490.534 210.579 490.342 210.888C490.15 211.187 489.894 211.432 489.574 211.624C489.265 211.805 488.886 211.896 488.438 211.896ZM494.297 204.728V213H495.657V208.328C495.657 207.955 495.705 207.613 495.801 207.304C495.908 206.984 496.063 206.707 496.265 206.472C496.468 206.237 496.719 206.056 497.017 205.928C497.327 205.8 497.689 205.736 498.105 205.736C498.628 205.736 499.039 205.885 499.337 206.184C499.636 206.483 499.785 206.888 499.785 207.4V213H501.145V207.56C501.145 207.112 501.097 206.707 501.001 206.344C500.916 205.971 500.761 205.651 500.537 205.384C500.313 205.117 500.02 204.909 499.657 204.76C499.295 204.611 498.841 204.536 498.297 204.536C497.071 204.536 496.175 205.037 495.609 206.04H495.577V204.728H494.297ZM503.188 204.728V213H504.548V207.848C504.548 207.688 504.585 207.491 504.66 207.256C504.745 207.011 504.873 206.776 505.044 206.552C505.225 206.328 505.455 206.136 505.732 205.976C506.02 205.816 506.361 205.736 506.756 205.736C507.065 205.736 507.316 205.784 507.508 205.88C507.711 205.965 507.871 206.093 507.988 206.264C508.105 206.424 508.185 206.616 508.228 206.84C508.281 207.064 508.308 207.309 508.308 207.576V213H509.668V207.848C509.668 207.208 509.86 206.696 510.244 206.312C510.628 205.928 511.156 205.736 511.828 205.736C512.159 205.736 512.425 205.784 512.628 205.88C512.841 205.976 513.007 206.109 513.124 206.28C513.241 206.44 513.321 206.632 513.364 206.856C513.407 207.08 513.428 207.32 513.428 207.576V213H514.788V206.936C514.788 206.509 514.719 206.147 514.58 205.848C514.452 205.539 514.265 205.288 514.02 205.096C513.785 204.904 513.497 204.765 513.156 204.68C512.825 204.584 512.452 204.536 512.036 204.536C511.492 204.536 510.991 204.659 510.532 204.904C510.084 205.149 509.721 205.496 509.444 205.944C509.273 205.432 508.98 205.069 508.564 204.856C508.148 204.643 507.684 204.536 507.172 204.536C506.009 204.536 505.119 205.005 504.5 205.944H504.468V204.728H503.188ZM522.573 208.072H517.821C517.842 207.752 517.911 207.453 518.029 207.176C518.146 206.888 518.306 206.637 518.509 206.424C518.711 206.211 518.951 206.045 519.229 205.928C519.517 205.8 519.837 205.736 520.189 205.736C520.53 205.736 520.839 205.8 521.117 205.928C521.405 206.045 521.65 206.211 521.853 206.424C522.066 206.627 522.231 206.872 522.349 207.16C522.477 207.448 522.551 207.752 522.573 208.072ZM523.885 210.376H522.541C522.423 210.92 522.178 211.325 521.805 211.592C521.442 211.859 520.973 211.992 520.397 211.992C519.949 211.992 519.559 211.917 519.229 211.768C518.898 211.619 518.626 211.421 518.413 211.176C518.199 210.92 518.045 210.632 517.949 210.312C517.853 209.981 517.81 209.635 517.821 209.272H524.013C524.034 208.771 523.986 208.243 523.869 207.688C523.762 207.133 523.559 206.621 523.261 206.152C522.973 205.683 522.583 205.299 522.093 205C521.613 204.691 521.005 204.536 520.269 204.536C519.703 204.536 519.181 204.643 518.701 204.856C518.231 205.069 517.821 205.368 517.469 205.752C517.127 206.136 516.861 206.589 516.669 207.112C516.477 207.635 516.381 208.211 516.381 208.84C516.402 209.469 516.493 210.051 516.653 210.584C516.823 211.117 517.074 211.576 517.405 211.96C517.735 212.344 518.141 212.643 518.621 212.856C519.111 213.069 519.687 213.176 520.349 213.176C521.287 213.176 522.066 212.941 522.685 212.472C523.303 212.003 523.703 211.304 523.885 210.376ZM525.422 204.728V213H526.782V208.328C526.782 207.955 526.83 207.613 526.926 207.304C527.033 206.984 527.188 206.707 527.39 206.472C527.593 206.237 527.844 206.056 528.142 205.928C528.452 205.8 528.814 205.736 529.23 205.736C529.753 205.736 530.164 205.885 530.462 206.184C530.761 206.483 530.91 206.888 530.91 207.4V213H532.27V207.56C532.27 207.112 532.222 206.707 532.126 206.344C532.041 205.971 531.886 205.651 531.662 205.384C531.438 205.117 531.145 204.909 530.782 204.76C530.42 204.611 529.966 204.536 529.422 204.536C528.196 204.536 527.3 205.037 526.734 206.04H526.702V204.728H525.422ZM536.201 204.728V202.248H534.841V204.728H533.433V205.928H534.841V211.192C534.841 211.576 534.878 211.885 534.953 212.12C535.028 212.355 535.14 212.536 535.289 212.664C535.449 212.792 535.652 212.883 535.897 212.936C536.153 212.979 536.457 213 536.809 213H537.849V211.8H537.225C537.012 211.8 536.836 211.795 536.697 211.784C536.569 211.763 536.468 211.725 536.393 211.672C536.318 211.619 536.265 211.544 536.233 211.448C536.212 211.352 536.201 211.224 536.201 211.064V205.928H537.849V204.728H536.201Z" fill="white"/>
<rect width="84" height="36" transform="translate(258 35)" fill="#171717"/>
<path d="M267.248 47.576V59H268.768V54.12H272.48C272.853 54.12 273.152 54.1787 273.376 54.296C273.6 54.4027 273.781 54.552 273.92 54.744C274.059 54.9253 274.16 55.144 274.224 55.4C274.288 55.6453 274.341 55.9067 274.384 56.184C274.437 56.4613 274.469 56.744 274.48 57.032C274.491 57.32 274.501 57.592 274.512 57.848C274.523 58.0933 274.544 58.3173 274.576 58.52C274.619 58.7227 274.693 58.8827 274.8 59H276.496C276.336 58.808 276.213 58.5893 276.128 58.344C276.053 58.088 275.995 57.8213 275.952 57.544C275.909 57.2667 275.883 56.984 275.872 56.696C275.861 56.408 275.845 56.1253 275.824 55.848C275.792 55.5707 275.744 55.304 275.68 55.048C275.627 54.792 275.536 54.5627 275.408 54.36C275.291 54.1467 275.125 53.9653 274.912 53.816C274.709 53.6667 274.443 53.56 274.112 53.496V53.464C274.805 53.272 275.307 52.9147 275.616 52.392C275.936 51.8693 276.096 51.2613 276.096 50.568C276.096 49.64 275.787 48.9093 275.168 48.376C274.56 47.8427 273.712 47.576 272.624 47.576H267.248ZM271.936 52.84H268.768V48.856H272.544C273.259 48.856 273.776 49.0373 274.096 49.4C274.416 49.7627 274.576 50.232 274.576 50.808C274.576 51.224 274.501 51.5653 274.352 51.832C274.213 52.088 274.021 52.296 273.776 52.456C273.541 52.6053 273.264 52.7067 272.944 52.76C272.624 52.8133 272.288 52.84 271.936 52.84ZM283.721 54.072H278.969C278.99 53.752 279.06 53.4533 279.177 53.176C279.294 52.888 279.454 52.6373 279.657 52.424C279.86 52.2107 280.1 52.0453 280.377 51.928C280.665 51.8 280.985 51.736 281.337 51.736C281.678 51.736 281.988 51.8 282.265 51.928C282.553 52.0453 282.798 52.2107 283.001 52.424C283.214 52.6267 283.38 52.872 283.497 53.16C283.625 53.448 283.7 53.752 283.721 54.072ZM285.033 56.376H283.689C283.572 56.92 283.326 57.3253 282.953 57.592C282.59 57.8587 282.121 57.992 281.545 57.992C281.097 57.992 280.708 57.9173 280.377 57.768C280.046 57.6187 279.774 57.4213 279.561 57.176C279.348 56.92 279.193 56.632 279.097 56.312C279.001 55.9813 278.958 55.6347 278.969 55.272H285.161C285.182 54.7707 285.134 54.2427 285.017 53.688C284.91 53.1333 284.708 52.6213 284.409 52.152C284.121 51.6827 283.732 51.2987 283.241 51C282.761 50.6907 282.153 50.536 281.417 50.536C280.852 50.536 280.329 50.6427 279.849 50.856C279.38 51.0693 278.969 51.368 278.617 51.752C278.276 52.136 278.009 52.5893 277.817 53.112C277.625 53.6347 277.529 54.2107 277.529 54.84C277.55 55.4693 277.641 56.0507 277.801 56.584C277.972 57.1173 278.222 57.576 278.553 57.96C278.884 58.344 279.289 58.6427 279.769 58.856C280.26 59.0693 280.836 59.176 281.497 59.176C282.436 59.176 283.214 58.9413 283.833 58.472C284.452 58.0027 284.852 57.304 285.033 56.376ZM287.403 56.392H286.043C286.064 56.904 286.171 57.3413 286.363 57.704C286.555 58.056 286.811 58.344 287.131 58.568C287.451 58.7813 287.819 58.936 288.235 59.032C288.651 59.128 289.088 59.176 289.547 59.176C289.963 59.176 290.379 59.1333 290.795 59.048C291.222 58.9733 291.6 58.8347 291.931 58.632C292.272 58.4293 292.544 58.1627 292.747 57.832C292.96 57.5013 293.067 57.0853 293.067 56.584C293.067 56.1893 292.987 55.8587 292.827 55.592C292.678 55.3253 292.475 55.1067 292.219 54.936C291.974 54.7547 291.686 54.6107 291.355 54.504C291.035 54.3973 290.704 54.3067 290.363 54.232C290.043 54.1573 289.723 54.088 289.403 54.024C289.083 53.9493 288.795 53.864 288.539 53.768C288.283 53.6613 288.07 53.5333 287.899 53.384C287.739 53.224 287.659 53.0267 287.659 52.792C287.659 52.5787 287.712 52.408 287.819 52.28C287.926 52.1413 288.064 52.0347 288.235 51.96C288.406 51.8747 288.592 51.816 288.795 51.784C289.008 51.752 289.216 51.736 289.419 51.736C289.643 51.736 289.862 51.7627 290.075 51.816C290.299 51.8587 290.502 51.9333 290.683 52.04C290.864 52.1467 291.014 52.2907 291.131 52.472C291.248 52.6427 291.318 52.8613 291.339 53.128H292.699C292.667 52.6267 292.56 52.2107 292.379 51.88C292.198 51.5387 291.952 51.272 291.643 51.08C291.344 50.8773 290.998 50.7387 290.603 50.664C290.208 50.5787 289.776 50.536 289.307 50.536C288.944 50.536 288.576 50.584 288.203 50.68C287.84 50.7653 287.51 50.904 287.211 51.096C286.923 51.2773 286.683 51.5173 286.491 51.816C286.31 52.1147 286.219 52.472 286.219 52.888C286.219 53.4213 286.352 53.8373 286.619 54.136C286.886 54.4347 287.216 54.6693 287.611 54.84C288.016 55 288.454 55.128 288.923 55.224C289.392 55.3093 289.824 55.4107 290.219 55.528C290.624 55.6347 290.96 55.7787 291.227 55.96C291.494 56.1413 291.627 56.408 291.627 56.76C291.627 57.016 291.563 57.2293 291.435 57.4C291.307 57.56 291.142 57.6827 290.939 57.768C290.747 57.8533 290.534 57.912 290.299 57.944C290.064 57.976 289.84 57.992 289.627 57.992C289.35 57.992 289.078 57.9653 288.811 57.912C288.555 57.8587 288.32 57.7733 288.107 57.656C287.904 57.528 287.739 57.3627 287.611 57.16C287.483 56.9467 287.414 56.6907 287.403 56.392ZM300.315 54.072H295.563C295.584 53.752 295.654 53.4533 295.771 53.176C295.888 52.888 296.048 52.6373 296.251 52.424C296.454 52.2107 296.694 52.0453 296.971 51.928C297.259 51.8 297.579 51.736 297.931 51.736C298.272 51.736 298.582 51.8 298.859 51.928C299.147 52.0453 299.392 52.2107 299.595 52.424C299.808 52.6267 299.974 52.872 300.091 53.16C300.219 53.448 300.294 53.752 300.315 54.072ZM301.627 56.376H300.283C300.166 56.92 299.92 57.3253 299.547 57.592C299.184 57.8587 298.715 57.992 298.139 57.992C297.691 57.992 297.302 57.9173 296.971 57.768C296.64 57.6187 296.368 57.4213 296.155 57.176C295.942 56.92 295.787 56.632 295.691 56.312C295.595 55.9813 295.552 55.6347 295.563 55.272H301.755C301.776 54.7707 301.728 54.2427 301.611 53.688C301.504 53.1333 301.302 52.6213 301.003 52.152C300.715 51.6827 300.326 51.2987 299.835 51C299.355 50.6907 298.747 50.536 298.011 50.536C297.446 50.536 296.923 50.6427 296.443 50.856C295.974 51.0693 295.563 51.368 295.211 51.752C294.87 52.136 294.603 52.5893 294.411 53.112C294.219 53.6347 294.123 54.2107 294.123 54.84C294.144 55.4693 294.235 56.0507 294.395 56.584C294.566 57.1173 294.816 57.576 295.147 57.96C295.478 58.344 295.883 58.6427 296.363 58.856C296.854 59.0693 297.43 59.176 298.091 59.176C299.03 59.176 299.808 58.9413 300.427 58.472C301.046 58.0027 301.446 57.304 301.627 56.376ZM310.493 58.968C310.258 59.1067 309.933 59.176 309.517 59.176C309.165 59.176 308.882 59.08 308.669 58.888C308.466 58.6853 308.365 58.36 308.365 57.912C307.991 58.36 307.554 58.6853 307.053 58.888C306.562 59.08 306.029 59.176 305.453 59.176C305.079 59.176 304.722 59.1333 304.381 59.048C304.05 58.9627 303.762 58.8293 303.517 58.648C303.271 58.4667 303.074 58.232 302.925 57.944C302.786 57.6453 302.717 57.288 302.717 56.872C302.717 56.4027 302.797 56.0187 302.957 55.72C303.117 55.4213 303.325 55.1813 303.581 55C303.847 54.808 304.146 54.664 304.477 54.568C304.818 54.472 305.165 54.392 305.517 54.328C305.89 54.2533 306.242 54.2 306.573 54.168C306.914 54.1253 307.213 54.072 307.469 54.008C307.725 53.9333 307.927 53.832 308.077 53.704C308.226 53.5653 308.301 53.368 308.301 53.112C308.301 52.8133 308.242 52.5733 308.125 52.392C308.018 52.2107 307.874 52.072 307.693 51.976C307.522 51.88 307.325 51.816 307.101 51.784C306.887 51.752 306.674 51.736 306.461 51.736C305.885 51.736 305.405 51.848 305.021 52.072C304.637 52.2853 304.429 52.696 304.397 53.304H303.037C303.058 52.792 303.165 52.36 303.357 52.008C303.549 51.656 303.805 51.3733 304.125 51.16C304.445 50.936 304.807 50.776 305.213 50.68C305.629 50.584 306.071 50.536 306.541 50.536C306.914 50.536 307.282 50.5627 307.645 50.616C308.018 50.6693 308.354 50.7813 308.653 50.952C308.951 51.112 309.191 51.3413 309.373 51.64C309.554 51.9387 309.645 52.328 309.645 52.808V57.064C309.645 57.384 309.661 57.6187 309.693 57.768C309.735 57.9173 309.863 57.992 310.077 57.992C310.194 57.992 310.333 57.9653 310.493 57.912V58.968ZM308.285 54.728C308.114 54.856 307.89 54.952 307.613 55.016C307.335 55.0693 307.042 55.1173 306.733 55.16C306.434 55.192 306.13 55.2347 305.821 55.288C305.511 55.3307 305.234 55.4053 304.989 55.512C304.743 55.6187 304.541 55.7733 304.381 55.976C304.231 56.168 304.157 56.4347 304.157 56.776C304.157 57 304.199 57.192 304.285 57.352C304.381 57.5013 304.498 57.624 304.637 57.72C304.786 57.816 304.957 57.8853 305.149 57.928C305.341 57.9707 305.543 57.992 305.757 57.992C306.205 57.992 306.589 57.9333 306.909 57.816C307.229 57.688 307.49 57.5333 307.693 57.352C307.895 57.16 308.045 56.9573 308.141 56.744C308.237 56.52 308.285 56.312 308.285 56.12V54.728ZM311.71 50.728V59H313.07V55.32C313.07 54.7867 313.124 54.3173 313.23 53.912C313.337 53.496 313.508 53.144 313.742 52.856C313.977 52.568 314.286 52.3493 314.67 52.2C315.054 52.0507 315.518 51.976 316.062 51.976V50.536C315.326 50.5147 314.718 50.664 314.238 50.984C313.758 51.304 313.353 51.8 313.022 52.472H312.99V50.728H311.71ZM322.421 53.384H323.829C323.776 52.8933 323.648 52.472 323.445 52.12C323.243 51.7573 322.981 51.4587 322.661 51.224C322.352 50.9893 321.989 50.8187 321.573 50.712C321.168 50.5947 320.731 50.536 320.261 50.536C319.611 50.536 319.04 50.6533 318.549 50.888C318.059 51.112 317.648 51.4267 317.317 51.832C316.997 52.2267 316.757 52.696 316.597 53.24C316.437 53.7733 316.357 54.3493 316.357 54.968C316.357 55.5867 316.437 56.1573 316.597 56.68C316.768 57.192 317.013 57.6347 317.333 58.008C317.664 58.3813 318.069 58.6693 318.549 58.872C319.04 59.0747 319.6 59.176 320.229 59.176C321.285 59.176 322.117 58.8987 322.725 58.344C323.344 57.7893 323.728 57 323.877 55.976H322.485C322.4 56.616 322.165 57.112 321.781 57.464C321.408 57.816 320.885 57.992 320.213 57.992C319.787 57.992 319.419 57.9067 319.109 57.736C318.8 57.5653 318.549 57.3413 318.357 57.064C318.165 56.776 318.021 56.4507 317.925 56.088C317.84 55.7253 317.797 55.352 317.797 54.968C317.797 54.552 317.84 54.152 317.925 53.768C318.011 53.3733 318.149 53.0267 318.341 52.728C318.544 52.4293 318.811 52.1893 319.141 52.008C319.472 51.8267 319.883 51.736 320.373 51.736C320.949 51.736 321.408 51.88 321.749 52.168C322.091 52.456 322.315 52.8613 322.421 53.384ZM325.399 47.576V59H326.759V54.328C326.759 53.9547 326.807 53.6133 326.903 53.304C327.01 52.984 327.164 52.7067 327.367 52.472C327.57 52.2373 327.82 52.056 328.119 51.928C328.428 51.8 328.791 51.736 329.207 51.736C329.73 51.736 330.14 51.8853 330.439 52.184C330.738 52.4827 330.887 52.888 330.887 53.4V59H332.247V53.56C332.247 53.112 332.199 52.7067 332.103 52.344C332.018 51.9707 331.863 51.6507 331.639 51.384C331.415 51.1173 331.122 50.9093 330.759 50.76C330.396 50.6107 329.943 50.536 329.399 50.536C329.154 50.536 328.898 50.5627 328.631 50.616C328.375 50.6693 328.124 50.7547 327.879 50.872C327.644 50.9787 327.431 51.1227 327.239 51.304C327.047 51.4747 326.898 51.688 326.791 51.944H326.759V47.576H325.399Z" fill="white"/>
<rect width="164" height="36" transform="translate(339 97)" fill="#171717"/>
<path d="M356.35 113.016H357.87C357.785 112.408 357.604 111.875 357.326 111.416C357.049 110.947 356.702 110.557 356.286 110.248C355.87 109.939 355.396 109.704 354.862 109.544C354.329 109.384 353.764 109.304 353.166 109.304C352.292 109.304 351.513 109.464 350.83 109.784C350.158 110.093 349.593 110.52 349.134 111.064C348.686 111.608 348.345 112.248 348.11 112.984C347.876 113.709 347.758 114.488 347.758 115.32C347.758 116.152 347.865 116.931 348.078 117.656C348.302 118.381 348.633 119.011 349.07 119.544C349.508 120.077 350.057 120.499 350.718 120.808C351.38 121.107 352.153 121.256 353.038 121.256C354.5 121.256 355.652 120.856 356.494 120.056C357.337 119.256 357.833 118.136 357.982 116.696H356.462C356.43 117.165 356.334 117.603 356.174 118.008C356.014 118.413 355.79 118.765 355.502 119.064C355.225 119.352 354.889 119.581 354.494 119.752C354.11 119.912 353.668 119.992 353.166 119.992C352.484 119.992 351.897 119.864 351.406 119.608C350.916 119.352 350.51 119.011 350.19 118.584C349.881 118.147 349.652 117.64 349.502 117.064C349.353 116.477 349.278 115.859 349.278 115.208C349.278 114.611 349.353 114.035 349.502 113.48C349.652 112.925 349.881 112.435 350.19 112.008C350.51 111.571 350.91 111.224 351.39 110.968C351.881 110.712 352.468 110.584 353.15 110.584C353.95 110.584 354.638 110.787 355.214 111.192C355.801 111.597 356.18 112.205 356.35 113.016ZM360.633 116.872C360.633 116.371 360.697 115.928 360.825 115.544C360.964 115.149 361.151 114.819 361.385 114.552C361.62 114.285 361.892 114.083 362.201 113.944C362.521 113.805 362.857 113.736 363.209 113.736C363.561 113.736 363.892 113.805 364.201 113.944C364.521 114.083 364.799 114.285 365.033 114.552C365.268 114.819 365.449 115.149 365.577 115.544C365.716 115.928 365.785 116.371 365.785 116.872C365.785 117.373 365.716 117.821 365.577 118.216C365.449 118.6 365.268 118.925 365.033 119.192C364.799 119.448 364.521 119.645 364.201 119.784C363.892 119.923 363.561 119.992 363.209 119.992C362.857 119.992 362.521 119.923 362.201 119.784C361.892 119.645 361.62 119.448 361.385 119.192C361.151 118.925 360.964 118.6 360.825 118.216C360.697 117.821 360.633 117.373 360.633 116.872ZM359.193 116.872C359.193 117.48 359.279 118.045 359.449 118.568C359.62 119.091 359.876 119.549 360.217 119.944C360.559 120.328 360.98 120.632 361.481 120.856C361.983 121.069 362.559 121.176 363.209 121.176C363.871 121.176 364.447 121.069 364.937 120.856C365.439 120.632 365.86 120.328 366.201 119.944C366.543 119.549 366.799 119.091 366.969 118.568C367.14 118.045 367.225 117.48 367.225 116.872C367.225 116.264 367.14 115.699 366.969 115.176C366.799 114.643 366.543 114.184 366.201 113.8C365.86 113.405 365.439 113.096 364.937 112.872C364.447 112.648 363.871 112.536 363.209 112.536C362.559 112.536 361.983 112.648 361.481 112.872C360.98 113.096 360.559 113.405 360.217 113.8C359.876 114.184 359.62 114.643 359.449 115.176C359.279 115.699 359.193 116.264 359.193 116.872ZM368.829 112.728V121H370.189V115.848C370.189 115.688 370.226 115.491 370.301 115.256C370.386 115.011 370.514 114.776 370.685 114.552C370.866 114.328 371.095 114.136 371.373 113.976C371.661 113.816 372.002 113.736 372.397 113.736C372.706 113.736 372.957 113.784 373.149 113.88C373.351 113.965 373.511 114.093 373.629 114.264C373.746 114.424 373.826 114.616 373.869 114.84C373.922 115.064 373.949 115.309 373.949 115.576V121H375.309V115.848C375.309 115.208 375.501 114.696 375.885 114.312C376.269 113.928 376.797 113.736 377.469 113.736C377.799 113.736 378.066 113.784 378.269 113.88C378.482 113.976 378.647 114.109 378.765 114.28C378.882 114.44 378.962 114.632 379.005 114.856C379.047 115.08 379.069 115.32 379.069 115.576V121H380.429V114.936C380.429 114.509 380.359 114.147 380.221 113.848C380.093 113.539 379.906 113.288 379.661 113.096C379.426 112.904 379.138 112.765 378.797 112.68C378.466 112.584 378.093 112.536 377.677 112.536C377.133 112.536 376.631 112.659 376.173 112.904C375.725 113.149 375.362 113.496 375.085 113.944C374.914 113.432 374.621 113.069 374.205 112.856C373.789 112.643 373.325 112.536 372.813 112.536C371.65 112.536 370.759 113.005 370.141 113.944H370.109V112.728H368.829ZM382.517 112.728V124.152H383.877V119.896H383.909C384.059 120.141 384.24 120.349 384.453 120.52C384.677 120.68 384.912 120.808 385.157 120.904C385.403 121 385.648 121.069 385.893 121.112C386.149 121.155 386.379 121.176 386.581 121.176C387.211 121.176 387.76 121.064 388.229 120.84C388.709 120.616 389.104 120.312 389.413 119.928C389.733 119.533 389.968 119.075 390.117 118.552C390.277 118.029 390.357 117.475 390.357 116.888C390.357 116.301 390.277 115.747 390.117 115.224C389.957 114.701 389.717 114.243 389.397 113.848C389.088 113.443 388.693 113.123 388.213 112.888C387.744 112.653 387.189 112.536 386.549 112.536C385.973 112.536 385.445 112.643 384.965 112.856C384.485 113.059 384.133 113.389 383.909 113.848H383.877V112.728H382.517ZM388.917 116.792C388.917 117.197 388.875 117.592 388.789 117.976C388.704 118.36 388.565 118.701 388.373 119C388.181 119.299 387.925 119.539 387.605 119.72C387.296 119.901 386.907 119.992 386.437 119.992C385.968 119.992 385.568 119.907 385.237 119.736C384.907 119.555 384.635 119.32 384.421 119.032C384.219 118.744 384.069 118.413 383.973 118.04C383.877 117.656 383.829 117.261 383.829 116.856C383.829 116.472 383.872 116.093 383.957 115.72C384.053 115.347 384.203 115.016 384.405 114.728C384.608 114.429 384.869 114.189 385.189 114.008C385.509 113.827 385.899 113.736 386.357 113.736C386.795 113.736 387.173 113.821 387.493 113.992C387.824 114.163 388.091 114.392 388.293 114.68C388.507 114.968 388.661 115.299 388.757 115.672C388.864 116.035 388.917 116.408 388.917 116.792ZM397.698 116.072H392.946C392.967 115.752 393.036 115.453 393.154 115.176C393.271 114.888 393.431 114.637 393.634 114.424C393.836 114.211 394.076 114.045 394.354 113.928C394.642 113.8 394.962 113.736 395.314 113.736C395.655 113.736 395.964 113.8 396.242 113.928C396.53 114.045 396.775 114.211 396.978 114.424C397.191 114.627 397.356 114.872 397.474 115.16C397.602 115.448 397.676 115.752 397.698 116.072ZM399.01 118.376H397.666C397.548 118.92 397.303 119.325 396.93 119.592C396.567 119.859 396.098 119.992 395.522 119.992C395.074 119.992 394.684 119.917 394.354 119.768C394.023 119.619 393.751 119.421 393.538 119.176C393.324 118.92 393.17 118.632 393.074 118.312C392.978 117.981 392.935 117.635 392.946 117.272H399.138C399.159 116.771 399.111 116.243 398.994 115.688C398.887 115.133 398.684 114.621 398.386 114.152C398.098 113.683 397.708 113.299 397.218 113C396.738 112.691 396.13 112.536 395.394 112.536C394.828 112.536 394.306 112.643 393.826 112.856C393.356 113.069 392.946 113.368 392.594 113.752C392.252 114.136 391.986 114.589 391.794 115.112C391.602 115.635 391.506 116.211 391.506 116.84C391.527 117.469 391.618 118.051 391.778 118.584C391.948 119.117 392.199 119.576 392.53 119.96C392.86 120.344 393.266 120.643 393.746 120.856C394.236 121.069 394.812 121.176 395.474 121.176C396.412 121.176 397.191 120.941 397.81 120.472C398.428 120.003 398.828 119.304 399.01 118.376ZM402.435 112.728V110.248H401.075V112.728H399.667V113.928H401.075V119.192C401.075 119.576 401.113 119.885 401.187 120.12C401.262 120.355 401.374 120.536 401.523 120.664C401.683 120.792 401.886 120.883 402.131 120.936C402.387 120.979 402.691 121 403.043 121H404.083V119.8H403.459C403.246 119.8 403.07 119.795 402.931 119.784C402.803 119.763 402.702 119.725 402.627 119.672C402.553 119.619 402.499 119.544 402.467 119.448C402.446 119.352 402.435 119.224 402.435 119.064V113.928H404.083V112.728H402.435ZM407.034 111.24V109.576H405.674V111.24H407.034ZM405.674 112.728V121H407.034V112.728H405.674ZM411.029 112.728V110.248H409.669V112.728H408.261V113.928H409.669V119.192C409.669 119.576 409.707 119.885 409.781 120.12C409.856 120.355 409.968 120.536 410.117 120.664C410.277 120.792 410.48 120.883 410.725 120.936C410.981 120.979 411.285 121 411.637 121H412.677V119.8H412.053C411.84 119.8 411.664 119.795 411.525 119.784C411.397 119.763 411.296 119.725 411.221 119.672C411.147 119.619 411.093 119.544 411.061 119.448C411.04 119.352 411.029 119.224 411.029 119.064V113.928H412.677V112.728H411.029ZM415.628 111.24V109.576H414.268V111.24H415.628ZM414.268 112.728V121H415.628V112.728H414.268ZM421.463 121L424.487 112.728H423.063L420.807 119.624H420.775L418.455 112.728H416.935L420.007 121H421.463ZM431.479 116.072H426.727C426.748 115.752 426.818 115.453 426.935 115.176C427.052 114.888 427.212 114.637 427.415 114.424C427.618 114.211 427.858 114.045 428.135 113.928C428.423 113.8 428.743 113.736 429.095 113.736C429.436 113.736 429.746 113.8 430.023 113.928C430.311 114.045 430.556 114.211 430.759 114.424C430.972 114.627 431.138 114.872 431.255 115.16C431.383 115.448 431.458 115.752 431.479 116.072ZM432.791 118.376H431.447C431.33 118.92 431.084 119.325 430.711 119.592C430.348 119.859 429.879 119.992 429.303 119.992C428.855 119.992 428.466 119.917 428.135 119.768C427.804 119.619 427.532 119.421 427.319 119.176C427.106 118.92 426.951 118.632 426.855 118.312C426.759 117.981 426.716 117.635 426.727 117.272H432.919C432.94 116.771 432.892 116.243 432.775 115.688C432.668 115.133 432.466 114.621 432.167 114.152C431.879 113.683 431.49 113.299 430.999 113C430.519 112.691 429.911 112.536 429.175 112.536C428.61 112.536 428.087 112.643 427.607 112.856C427.138 113.069 426.727 113.368 426.375 113.752C426.034 114.136 425.767 114.589 425.575 115.112C425.383 115.635 425.287 116.211 425.287 116.84C425.308 117.469 425.399 118.051 425.559 118.584C425.73 119.117 425.98 119.576 426.311 119.96C426.642 120.344 427.047 120.643 427.527 120.856C428.018 121.069 428.594 121.176 429.255 121.176C430.194 121.176 430.972 120.941 431.591 120.472C432.21 120.003 432.61 119.304 432.791 118.376ZM446.11 120.968C445.875 121.107 445.55 121.176 445.134 121.176C444.782 121.176 444.499 121.08 444.286 120.888C444.083 120.685 443.982 120.36 443.982 119.912C443.608 120.36 443.171 120.685 442.67 120.888C442.179 121.08 441.646 121.176 441.07 121.176C440.696 121.176 440.339 121.133 439.998 121.048C439.667 120.963 439.379 120.829 439.134 120.648C438.888 120.467 438.691 120.232 438.542 119.944C438.403 119.645 438.334 119.288 438.334 118.872C438.334 118.403 438.414 118.019 438.574 117.72C438.734 117.421 438.942 117.181 439.198 117C439.464 116.808 439.763 116.664 440.094 116.568C440.435 116.472 440.782 116.392 441.134 116.328C441.507 116.253 441.859 116.2 442.19 116.168C442.531 116.125 442.83 116.072 443.086 116.008C443.342 115.933 443.544 115.832 443.694 115.704C443.843 115.565 443.918 115.368 443.918 115.112C443.918 114.813 443.859 114.573 443.742 114.392C443.635 114.211 443.491 114.072 443.31 113.976C443.139 113.88 442.942 113.816 442.718 113.784C442.504 113.752 442.291 113.736 442.078 113.736C441.502 113.736 441.022 113.848 440.638 114.072C440.254 114.285 440.046 114.696 440.014 115.304H438.654C438.675 114.792 438.782 114.36 438.974 114.008C439.166 113.656 439.422 113.373 439.742 113.16C440.062 112.936 440.424 112.776 440.83 112.68C441.246 112.584 441.688 112.536 442.158 112.536C442.531 112.536 442.899 112.563 443.262 112.616C443.635 112.669 443.971 112.781 444.27 112.952C444.568 113.112 444.808 113.341 444.99 113.64C445.171 113.939 445.262 114.328 445.262 114.808V119.064C445.262 119.384 445.278 119.619 445.31 119.768C445.352 119.917 445.48 119.992 445.694 119.992C445.811 119.992 445.95 119.965 446.11 119.912V120.968ZM443.902 116.728C443.731 116.856 443.507 116.952 443.23 117.016C442.952 117.069 442.659 117.117 442.35 117.16C442.051 117.192 441.747 117.235 441.438 117.288C441.128 117.331 440.851 117.405 440.606 117.512C440.36 117.619 440.158 117.773 439.998 117.976C439.848 118.168 439.774 118.435 439.774 118.776C439.774 119 439.816 119.192 439.902 119.352C439.998 119.501 440.115 119.624 440.254 119.72C440.403 119.816 440.574 119.885 440.766 119.928C440.958 119.971 441.16 119.992 441.374 119.992C441.822 119.992 442.206 119.933 442.526 119.816C442.846 119.688 443.107 119.533 443.31 119.352C443.512 119.16 443.662 118.957 443.758 118.744C443.854 118.52 443.902 118.312 443.902 118.12V116.728ZM447.376 112.728V121H448.736V116.328C448.736 115.955 448.784 115.613 448.88 115.304C448.986 114.984 449.141 114.707 449.344 114.472C449.546 114.237 449.797 114.056 450.096 113.928C450.405 113.8 450.768 113.736 451.184 113.736C451.706 113.736 452.117 113.885 452.416 114.184C452.714 114.483 452.864 114.888 452.864 115.4V121H454.224V115.56C454.224 115.112 454.176 114.707 454.08 114.344C453.994 113.971 453.84 113.651 453.616 113.384C453.392 113.117 453.098 112.909 452.736 112.76C452.373 112.611 451.92 112.536 451.376 112.536C450.149 112.536 449.253 113.037 448.688 114.04H448.656V112.728H447.376ZM463.594 120.968C463.36 121.107 463.034 121.176 462.618 121.176C462.266 121.176 461.984 121.08 461.77 120.888C461.568 120.685 461.466 120.36 461.466 119.912C461.093 120.36 460.656 120.685 460.154 120.888C459.664 121.08 459.13 121.176 458.554 121.176C458.181 121.176 457.824 121.133 457.482 121.048C457.152 120.963 456.864 120.829 456.618 120.648C456.373 120.467 456.176 120.232 456.026 119.944C455.888 119.645 455.818 119.288 455.818 118.872C455.818 118.403 455.898 118.019 456.058 117.72C456.218 117.421 456.426 117.181 456.682 117C456.949 116.808 457.248 116.664 457.578 116.568C457.92 116.472 458.266 116.392 458.618 116.328C458.992 116.253 459.344 116.2 459.674 116.168C460.016 116.125 460.314 116.072 460.57 116.008C460.826 115.933 461.029 115.832 461.178 115.704C461.328 115.565 461.402 115.368 461.402 115.112C461.402 114.813 461.344 114.573 461.226 114.392C461.12 114.211 460.976 114.072 460.794 113.976C460.624 113.88 460.426 113.816 460.202 113.784C459.989 113.752 459.776 113.736 459.562 113.736C458.986 113.736 458.506 113.848 458.122 114.072C457.738 114.285 457.53 114.696 457.498 115.304H456.138C456.16 114.792 456.266 114.36 456.458 114.008C456.65 113.656 456.906 113.373 457.226 113.16C457.546 112.936 457.909 112.776 458.314 112.68C458.73 112.584 459.173 112.536 459.642 112.536C460.016 112.536 460.384 112.563 460.746 112.616C461.12 112.669 461.456 112.781 461.754 112.952C462.053 113.112 462.293 113.341 462.474 113.64C462.656 113.939 462.746 114.328 462.746 114.808V119.064C462.746 119.384 462.762 119.619 462.794 119.768C462.837 119.917 462.965 119.992 463.178 119.992C463.296 119.992 463.434 119.965 463.594 119.912V120.968ZM461.386 116.728C461.216 116.856 460.992 116.952 460.714 117.016C460.437 117.069 460.144 117.117 459.834 117.16C459.536 117.192 459.232 117.235 458.922 117.288C458.613 117.331 458.336 117.405 458.09 117.512C457.845 117.619 457.642 117.773 457.482 117.976C457.333 118.168 457.258 118.435 457.258 118.776C457.258 119 457.301 119.192 457.386 119.352C457.482 119.501 457.6 119.624 457.738 119.72C457.888 119.816 458.058 119.885 458.25 119.928C458.442 119.971 458.645 119.992 458.858 119.992C459.306 119.992 459.69 119.933 460.01 119.816C460.33 119.688 460.592 119.533 460.794 119.352C460.997 119.16 461.146 118.957 461.242 118.744C461.338 118.52 461.386 118.312 461.386 118.12V116.728ZM464.94 109.576V121H466.3V109.576H464.94ZM471.655 122.104C471.495 122.509 471.335 122.851 471.175 123.128C471.025 123.405 470.855 123.629 470.663 123.8C470.481 123.981 470.273 124.109 470.039 124.184C469.815 124.269 469.553 124.312 469.255 124.312C469.095 124.312 468.935 124.301 468.775 124.28C468.615 124.259 468.46 124.221 468.311 124.168V122.92C468.428 122.973 468.561 123.016 468.711 123.048C468.871 123.091 469.004 123.112 469.111 123.112C469.388 123.112 469.617 123.043 469.799 122.904C469.991 122.776 470.135 122.589 470.231 122.344L470.791 120.952L467.511 112.728H469.047L471.463 119.496H471.495L473.815 112.728H475.255L471.655 122.104ZM477.239 118.392H475.879C475.9 118.904 476.007 119.341 476.199 119.704C476.391 120.056 476.647 120.344 476.967 120.568C477.287 120.781 477.655 120.936 478.071 121.032C478.487 121.128 478.924 121.176 479.383 121.176C479.799 121.176 480.215 121.133 480.631 121.048C481.057 120.973 481.436 120.835 481.767 120.632C482.108 120.429 482.38 120.163 482.583 119.832C482.796 119.501 482.903 119.085 482.903 118.584C482.903 118.189 482.823 117.859 482.663 117.592C482.513 117.325 482.311 117.107 482.055 116.936C481.809 116.755 481.521 116.611 481.191 116.504C480.871 116.397 480.54 116.307 480.199 116.232C479.879 116.157 479.559 116.088 479.239 116.024C478.919 115.949 478.631 115.864 478.375 115.768C478.119 115.661 477.905 115.533 477.735 115.384C477.575 115.224 477.495 115.027 477.495 114.792C477.495 114.579 477.548 114.408 477.655 114.28C477.761 114.141 477.9 114.035 478.071 113.96C478.241 113.875 478.428 113.816 478.631 113.784C478.844 113.752 479.052 113.736 479.255 113.736C479.479 113.736 479.697 113.763 479.911 113.816C480.135 113.859 480.337 113.933 480.519 114.04C480.7 114.147 480.849 114.291 480.967 114.472C481.084 114.643 481.153 114.861 481.175 115.128H482.535C482.503 114.627 482.396 114.211 482.215 113.88C482.033 113.539 481.788 113.272 481.479 113.08C481.18 112.877 480.833 112.739 480.439 112.664C480.044 112.579 479.612 112.536 479.143 112.536C478.78 112.536 478.412 112.584 478.039 112.68C477.676 112.765 477.345 112.904 477.047 113.096C476.759 113.277 476.519 113.517 476.327 113.816C476.145 114.115 476.055 114.472 476.055 114.888C476.055 115.421 476.188 115.837 476.455 116.136C476.721 116.435 477.052 116.669 477.447 116.84C477.852 117 478.289 117.128 478.759 117.224C479.228 117.309 479.66 117.411 480.055 117.528C480.46 117.635 480.796 117.779 481.063 117.96C481.329 118.141 481.463 118.408 481.463 118.76C481.463 119.016 481.399 119.229 481.271 119.4C481.143 119.56 480.977 119.683 480.775 119.768C480.583 119.853 480.369 119.912 480.135 119.944C479.9 119.976 479.676 119.992 479.463 119.992C479.185 119.992 478.913 119.965 478.647 119.912C478.391 119.859 478.156 119.773 477.943 119.656C477.74 119.528 477.575 119.363 477.447 119.16C477.319 118.947 477.249 118.691 477.239 118.392ZM485.847 111.24V109.576H484.487V111.24H485.847ZM484.487 112.728V121H485.847V112.728H484.487ZM488.786 118.392H487.426C487.447 118.904 487.554 119.341 487.746 119.704C487.938 120.056 488.194 120.344 488.514 120.568C488.834 120.781 489.202 120.936 489.618 121.032C490.034 121.128 490.471 121.176 490.93 121.176C491.346 121.176 491.762 121.133 492.178 121.048C492.604 120.973 492.983 120.835 493.314 120.632C493.655 120.429 493.927 120.163 494.13 119.832C494.343 119.501 494.45 119.085 494.45 118.584C494.45 118.189 494.37 117.859 494.21 117.592C494.06 117.325 493.858 117.107 493.602 116.936C493.356 116.755 493.068 116.611 492.738 116.504C492.418 116.397 492.087 116.307 491.746 116.232C491.426 116.157 491.106 116.088 490.786 116.024C490.466 115.949 490.178 115.864 489.922 115.768C489.666 115.661 489.452 115.533 489.282 115.384C489.122 115.224 489.042 115.027 489.042 114.792C489.042 114.579 489.095 114.408 489.202 114.28C489.308 114.141 489.447 114.035 489.618 113.96C489.788 113.875 489.975 113.816 490.178 113.784C490.391 113.752 490.599 113.736 490.802 113.736C491.026 113.736 491.244 113.763 491.458 113.816C491.682 113.859 491.884 113.933 492.066 114.04C492.247 114.147 492.396 114.291 492.514 114.472C492.631 114.643 492.7 114.861 492.722 115.128H494.082C494.05 114.627 493.943 114.211 493.762 113.88C493.58 113.539 493.335 113.272 493.026 113.08C492.727 112.877 492.38 112.739 491.986 112.664C491.591 112.579 491.159 112.536 490.69 112.536C490.327 112.536 489.959 112.584 489.586 112.68C489.223 112.765 488.892 112.904 488.594 113.096C488.306 113.277 488.066 113.517 487.874 113.816C487.692 114.115 487.602 114.472 487.602 114.888C487.602 115.421 487.735 115.837 488.002 116.136C488.268 116.435 488.599 116.669 488.994 116.84C489.399 117 489.836 117.128 490.306 117.224C490.775 117.309 491.207 117.411 491.602 117.528C492.007 117.635 492.343 117.779 492.61 117.96C492.876 118.141 493.01 118.408 493.01 118.76C493.01 119.016 492.946 119.229 492.818 119.4C492.69 119.56 492.524 119.683 492.322 119.768C492.13 119.853 491.916 119.912 491.682 119.944C491.447 119.976 491.223 119.992 491.01 119.992C490.732 119.992 490.46 119.965 490.194 119.912C489.938 119.859 489.703 119.773 489.49 119.656C489.287 119.528 489.122 119.363 488.994 119.16C488.866 118.947 488.796 118.691 488.786 118.392Z" fill="white"/>
<rect width="103" height="36" transform="translate(134 246)" fill="#171717"/>
<path d="M152.751 265.872V258.576H151.231V265.872C151.231 266.896 150.975 267.675 150.463 268.208C149.961 268.731 149.225 268.992 148.255 268.992C147.231 268.992 146.447 268.731 145.903 268.208C145.359 267.675 145.087 266.896 145.087 265.872V258.576H143.567V265.872C143.567 267.397 143.977 268.512 144.799 269.216C145.631 269.909 146.783 270.256 148.255 270.256C149.695 270.256 150.804 269.893 151.583 269.168C152.361 268.432 152.751 267.333 152.751 265.872ZM155.786 267.392H154.426C154.447 267.904 154.554 268.341 154.746 268.704C154.938 269.056 155.194 269.344 155.514 269.568C155.834 269.781 156.202 269.936 156.618 270.032C157.034 270.128 157.471 270.176 157.93 270.176C158.346 270.176 158.762 270.133 159.178 270.048C159.604 269.973 159.983 269.835 160.314 269.632C160.655 269.429 160.927 269.163 161.13 268.832C161.343 268.501 161.45 268.085 161.45 267.584C161.45 267.189 161.37 266.859 161.21 266.592C161.06 266.325 160.858 266.107 160.602 265.936C160.356 265.755 160.068 265.611 159.738 265.504C159.418 265.397 159.087 265.307 158.746 265.232C158.426 265.157 158.106 265.088 157.786 265.024C157.466 264.949 157.178 264.864 156.922 264.768C156.666 264.661 156.452 264.533 156.282 264.384C156.122 264.224 156.042 264.027 156.042 263.792C156.042 263.579 156.095 263.408 156.202 263.28C156.308 263.141 156.447 263.035 156.618 262.96C156.788 262.875 156.975 262.816 157.178 262.784C157.391 262.752 157.599 262.736 157.802 262.736C158.026 262.736 158.244 262.763 158.458 262.816C158.682 262.859 158.884 262.933 159.066 263.04C159.247 263.147 159.396 263.291 159.514 263.472C159.631 263.643 159.7 263.861 159.722 264.128H161.082C161.05 263.627 160.943 263.211 160.762 262.88C160.58 262.539 160.335 262.272 160.026 262.08C159.727 261.877 159.38 261.739 158.986 261.664C158.591 261.579 158.159 261.536 157.69 261.536C157.327 261.536 156.959 261.584 156.586 261.68C156.223 261.765 155.892 261.904 155.594 262.096C155.306 262.277 155.066 262.517 154.874 262.816C154.692 263.115 154.602 263.472 154.602 263.888C154.602 264.421 154.735 264.837 155.002 265.136C155.268 265.435 155.599 265.669 155.994 265.84C156.399 266 156.836 266.128 157.306 266.224C157.775 266.309 158.207 266.411 158.602 266.528C159.007 266.635 159.343 266.779 159.61 266.96C159.876 267.141 160.01 267.408 160.01 267.76C160.01 268.016 159.946 268.229 159.818 268.4C159.69 268.56 159.524 268.683 159.322 268.768C159.13 268.853 158.916 268.912 158.682 268.944C158.447 268.976 158.223 268.992 158.01 268.992C157.732 268.992 157.46 268.965 157.194 268.912C156.938 268.859 156.703 268.773 156.49 268.656C156.287 268.528 156.122 268.363 155.994 268.16C155.866 267.947 155.796 267.691 155.786 267.392ZM168.698 265.072H163.946C163.967 264.752 164.036 264.453 164.154 264.176C164.271 263.888 164.431 263.637 164.634 263.424C164.836 263.211 165.076 263.045 165.354 262.928C165.642 262.8 165.962 262.736 166.314 262.736C166.655 262.736 166.964 262.8 167.242 262.928C167.53 263.045 167.775 263.211 167.978 263.424C168.191 263.627 168.356 263.872 168.474 264.16C168.602 264.448 168.676 264.752 168.698 265.072ZM170.01 267.376H168.666C168.548 267.92 168.303 268.325 167.93 268.592C167.567 268.859 167.098 268.992 166.522 268.992C166.074 268.992 165.684 268.917 165.354 268.768C165.023 268.619 164.751 268.421 164.538 268.176C164.324 267.92 164.17 267.632 164.074 267.312C163.978 266.981 163.935 266.635 163.946 266.272H170.138C170.159 265.771 170.111 265.243 169.994 264.688C169.887 264.133 169.684 263.621 169.386 263.152C169.098 262.683 168.708 262.299 168.218 262C167.738 261.691 167.13 261.536 166.394 261.536C165.828 261.536 165.306 261.643 164.826 261.856C164.356 262.069 163.946 262.368 163.594 262.752C163.252 263.136 162.986 263.589 162.794 264.112C162.602 264.635 162.506 265.211 162.506 265.84C162.527 266.469 162.618 267.051 162.778 267.584C162.948 268.117 163.199 268.576 163.53 268.96C163.86 269.344 164.266 269.643 164.746 269.856C165.236 270.069 165.812 270.176 166.474 270.176C167.412 270.176 168.191 269.941 168.81 269.472C169.428 269.003 169.828 268.304 170.01 267.376ZM171.499 261.728V270H172.859V266.32C172.859 265.787 172.913 265.317 173.019 264.912C173.126 264.496 173.297 264.144 173.531 263.856C173.766 263.568 174.075 263.349 174.459 263.2C174.843 263.051 175.307 262.976 175.851 262.976V261.536C175.115 261.515 174.507 261.664 174.027 261.984C173.547 262.304 173.142 262.8 172.811 263.472H172.779V261.728H171.499ZM183.217 261.728V259.248H181.857V261.728H180.449V262.928H181.857V268.192C181.857 268.576 181.894 268.885 181.969 269.12C182.043 269.355 182.155 269.536 182.305 269.664C182.465 269.792 182.667 269.883 182.913 269.936C183.169 269.979 183.473 270 183.825 270H184.865V268.8H184.241C184.027 268.8 183.851 268.795 183.713 268.784C183.585 268.763 183.483 268.725 183.409 268.672C183.334 268.619 183.281 268.544 183.249 268.448C183.227 268.352 183.217 268.224 183.217 268.064V262.928H184.865V261.728H183.217ZM192.12 265.072H187.368C187.389 264.752 187.458 264.453 187.576 264.176C187.693 263.888 187.853 263.637 188.056 263.424C188.258 263.211 188.498 263.045 188.776 262.928C189.064 262.8 189.384 262.736 189.736 262.736C190.077 262.736 190.386 262.8 190.664 262.928C190.952 263.045 191.197 263.211 191.4 263.424C191.613 263.627 191.778 263.872 191.896 264.16C192.024 264.448 192.098 264.752 192.12 265.072ZM193.432 267.376H192.088C191.97 267.92 191.725 268.325 191.352 268.592C190.989 268.859 190.52 268.992 189.944 268.992C189.496 268.992 189.106 268.917 188.776 268.768C188.445 268.619 188.173 268.421 187.96 268.176C187.746 267.92 187.592 267.632 187.496 267.312C187.4 266.981 187.357 266.635 187.368 266.272H193.56C193.581 265.771 193.533 265.243 193.416 264.688C193.309 264.133 193.106 263.621 192.808 263.152C192.52 262.683 192.13 262.299 191.64 262C191.16 261.691 190.552 261.536 189.816 261.536C189.25 261.536 188.728 261.643 188.248 261.856C187.778 262.069 187.368 262.368 187.016 262.752C186.674 263.136 186.408 263.589 186.216 264.112C186.024 264.635 185.928 265.211 185.928 265.84C185.949 266.469 186.04 267.051 186.2 267.584C186.37 268.117 186.621 268.576 186.952 268.96C187.282 269.344 187.688 269.643 188.168 269.856C188.658 270.069 189.234 270.176 189.896 270.176C190.834 270.176 191.613 269.941 192.232 269.472C192.85 269.003 193.25 268.304 193.432 267.376ZM195.801 267.392H194.441C194.463 267.904 194.569 268.341 194.761 268.704C194.953 269.056 195.209 269.344 195.529 269.568C195.849 269.781 196.217 269.936 196.633 270.032C197.049 270.128 197.487 270.176 197.945 270.176C198.361 270.176 198.777 270.133 199.193 270.048C199.62 269.973 199.999 269.835 200.329 269.632C200.671 269.429 200.943 269.163 201.145 268.832C201.359 268.501 201.465 268.085 201.465 267.584C201.465 267.189 201.385 266.859 201.225 266.592C201.076 266.325 200.873 266.107 200.617 265.936C200.372 265.755 200.084 265.611 199.753 265.504C199.433 265.397 199.103 265.307 198.761 265.232C198.441 265.157 198.121 265.088 197.801 265.024C197.481 264.949 197.193 264.864 196.937 264.768C196.681 264.661 196.468 264.533 196.297 264.384C196.137 264.224 196.057 264.027 196.057 263.792C196.057 263.579 196.111 263.408 196.217 263.28C196.324 263.141 196.463 263.035 196.633 262.96C196.804 262.875 196.991 262.816 197.193 262.784C197.407 262.752 197.615 262.736 197.817 262.736C198.041 262.736 198.26 262.763 198.473 262.816C198.697 262.859 198.9 262.933 199.081 263.04C199.263 263.147 199.412 263.291 199.529 263.472C199.647 263.643 199.716 263.861 199.737 264.128H201.097C201.065 263.627 200.959 263.211 200.777 262.88C200.596 262.539 200.351 262.272 200.041 262.08C199.743 261.877 199.396 261.739 199.001 261.664C198.607 261.579 198.175 261.536 197.705 261.536C197.343 261.536 196.975 261.584 196.601 261.68C196.239 261.765 195.908 261.904 195.609 262.096C195.321 262.277 195.081 262.517 194.889 262.816C194.708 263.115 194.617 263.472 194.617 263.888C194.617 264.421 194.751 264.837 195.017 265.136C195.284 265.435 195.615 265.669 196.009 265.84C196.415 266 196.852 266.128 197.321 266.224C197.791 266.309 198.223 266.411 198.617 266.528C199.023 266.635 199.359 266.779 199.625 266.96C199.892 267.141 200.025 267.408 200.025 267.76C200.025 268.016 199.961 268.229 199.833 268.4C199.705 268.56 199.54 268.683 199.337 268.768C199.145 268.853 198.932 268.912 198.697 268.944C198.463 268.976 198.239 268.992 198.025 268.992C197.748 268.992 197.476 268.965 197.209 268.912C196.953 268.859 196.719 268.773 196.505 268.656C196.303 268.528 196.137 268.363 196.009 268.16C195.881 267.947 195.812 267.691 195.801 267.392ZM204.857 261.728V259.248H203.497V261.728H202.089V262.928H203.497V268.192C203.497 268.576 203.535 268.885 203.609 269.12C203.684 269.355 203.796 269.536 203.945 269.664C204.105 269.792 204.308 269.883 204.553 269.936C204.809 269.979 205.113 270 205.465 270H206.505V268.8H205.881C205.668 268.8 205.492 268.795 205.353 268.784C205.225 268.763 205.124 268.725 205.049 268.672C204.975 268.619 204.921 268.544 204.889 268.448C204.868 268.352 204.857 268.224 204.857 268.064V262.928H206.505V261.728H204.857ZM209.456 260.24V258.576H208.096V260.24H209.456ZM208.096 261.728V270H209.456V261.728H208.096ZM211.563 261.728V270H212.923V265.328C212.923 264.955 212.971 264.613 213.067 264.304C213.174 263.984 213.328 263.707 213.531 263.472C213.734 263.237 213.984 263.056 214.283 262.928C214.592 262.8 214.955 262.736 215.371 262.736C215.894 262.736 216.304 262.885 216.603 263.184C216.902 263.483 217.051 263.888 217.051 264.4V270H218.411V264.56C218.411 264.112 218.363 263.707 218.267 263.344C218.182 262.971 218.027 262.651 217.803 262.384C217.579 262.117 217.286 261.909 216.923 261.76C216.56 261.611 216.107 261.536 215.563 261.536C214.336 261.536 213.44 262.037 212.875 263.04H212.843V261.728H211.563ZM227.59 269.296V261.728H226.31V262.912H226.294C226.048 262.453 225.707 262.112 225.27 261.888C224.832 261.653 224.352 261.536 223.83 261.536C223.115 261.536 222.512 261.675 222.022 261.952C221.531 262.219 221.136 262.565 220.838 262.992C220.539 263.408 220.326 263.877 220.198 264.4C220.07 264.912 220.006 265.413 220.006 265.904C220.006 266.469 220.08 267.008 220.23 267.52C220.39 268.021 220.624 268.464 220.934 268.848C221.243 269.221 221.627 269.52 222.086 269.744C222.544 269.968 223.083 270.08 223.702 270.08C224.235 270.08 224.736 269.963 225.206 269.728C225.686 269.483 226.043 269.104 226.278 268.592H226.31V269.136C226.31 269.595 226.262 270.016 226.166 270.4C226.08 270.784 225.936 271.109 225.734 271.376C225.531 271.653 225.275 271.867 224.966 272.016C224.656 272.176 224.278 272.256 223.83 272.256C223.606 272.256 223.371 272.229 223.126 272.176C222.88 272.133 222.651 272.059 222.438 271.952C222.235 271.845 222.059 271.707 221.91 271.536C221.771 271.365 221.696 271.157 221.686 270.912H220.326C220.347 271.36 220.464 271.739 220.678 272.048C220.891 272.357 221.158 272.608 221.478 272.8C221.808 272.992 222.171 273.131 222.566 273.216C222.971 273.301 223.366 273.344 223.75 273.344C225.072 273.344 226.043 273.008 226.662 272.336C227.28 271.664 227.59 270.651 227.59 269.296ZM223.782 268.896C223.334 268.896 222.96 268.805 222.662 268.624C222.363 268.432 222.123 268.187 221.942 267.888C221.76 267.579 221.632 267.237 221.558 266.864C221.483 266.491 221.446 266.117 221.446 265.744C221.446 265.349 221.488 264.971 221.574 264.608C221.67 264.245 221.814 263.925 222.006 263.648C222.208 263.371 222.464 263.152 222.774 262.992C223.083 262.821 223.456 262.736 223.894 262.736C224.32 262.736 224.683 262.821 224.982 262.992C225.28 263.163 225.52 263.392 225.702 263.68C225.894 263.957 226.032 264.272 226.118 264.624C226.203 264.976 226.246 265.333 226.246 265.696C226.246 266.08 226.198 266.464 226.102 266.848C226.016 267.232 225.878 267.579 225.686 267.888C225.494 268.187 225.238 268.432 224.918 268.624C224.608 268.805 224.23 268.896 223.782 268.896Z" fill="white"/>
<rect width="145" height="36" transform="translate(287 276)" fill="#171717"/>
<path d="M296.436 288.576V300H297.956V295.12H301.668C302.041 295.12 302.34 295.179 302.564 295.296C302.788 295.403 302.969 295.552 303.108 295.744C303.246 295.925 303.348 296.144 303.411 296.4C303.476 296.645 303.529 296.907 303.572 297.184C303.625 297.461 303.657 297.744 303.668 298.032C303.678 298.32 303.689 298.592 303.7 298.848C303.71 299.093 303.732 299.317 303.764 299.52C303.806 299.723 303.881 299.883 303.988 300H305.684C305.524 299.808 305.401 299.589 305.316 299.344C305.241 299.088 305.182 298.821 305.14 298.544C305.097 298.267 305.07 297.984 305.06 297.696C305.049 297.408 305.033 297.125 305.012 296.848C304.98 296.571 304.932 296.304 304.868 296.048C304.814 295.792 304.724 295.563 304.595 295.36C304.478 295.147 304.313 294.965 304.1 294.816C303.897 294.667 303.63 294.56 303.3 294.496V294.464C303.993 294.272 304.494 293.915 304.804 293.392C305.124 292.869 305.284 292.261 305.284 291.568C305.284 290.64 304.974 289.909 304.356 289.376C303.748 288.843 302.9 288.576 301.812 288.576H296.436ZM301.124 293.84H297.956V289.856H301.732C302.446 289.856 302.964 290.037 303.284 290.4C303.604 290.763 303.764 291.232 303.764 291.808C303.764 292.224 303.689 292.565 303.54 292.832C303.401 293.088 303.209 293.296 302.964 293.456C302.729 293.605 302.452 293.707 302.132 293.76C301.812 293.813 301.476 293.84 301.124 293.84ZM314.493 299.968C314.258 300.107 313.933 300.176 313.517 300.176C313.165 300.176 312.882 300.08 312.669 299.888C312.466 299.685 312.365 299.36 312.365 298.912C311.991 299.36 311.554 299.685 311.053 299.888C310.562 300.08 310.029 300.176 309.453 300.176C309.079 300.176 308.722 300.133 308.381 300.048C308.05 299.963 307.762 299.829 307.517 299.648C307.271 299.467 307.074 299.232 306.925 298.944C306.786 298.645 306.717 298.288 306.717 297.872C306.717 297.403 306.797 297.019 306.957 296.72C307.117 296.421 307.325 296.181 307.581 296C307.847 295.808 308.146 295.664 308.477 295.568C308.818 295.472 309.165 295.392 309.517 295.328C309.89 295.253 310.242 295.2 310.573 295.168C310.914 295.125 311.213 295.072 311.469 295.008C311.725 294.933 311.927 294.832 312.077 294.704C312.226 294.565 312.301 294.368 312.301 294.112C312.301 293.813 312.242 293.573 312.125 293.392C312.018 293.211 311.874 293.072 311.693 292.976C311.522 292.88 311.325 292.816 311.101 292.784C310.887 292.752 310.674 292.736 310.461 292.736C309.885 292.736 309.405 292.848 309.021 293.072C308.637 293.285 308.429 293.696 308.397 294.304H307.037C307.058 293.792 307.165 293.36 307.357 293.008C307.549 292.656 307.805 292.373 308.125 292.16C308.445 291.936 308.807 291.776 309.213 291.68C309.629 291.584 310.071 291.536 310.541 291.536C310.914 291.536 311.282 291.563 311.645 291.616C312.018 291.669 312.354 291.781 312.653 291.952C312.951 292.112 313.191 292.341 313.373 292.64C313.554 292.939 313.645 293.328 313.645 293.808V298.064C313.645 298.384 313.661 298.619 313.693 298.768C313.735 298.917 313.863 298.992 314.077 298.992C314.194 298.992 314.333 298.965 314.493 298.912V299.968ZM312.285 295.728C312.114 295.856 311.89 295.952 311.613 296.016C311.335 296.069 311.042 296.117 310.733 296.16C310.434 296.192 310.13 296.235 309.821 296.288C309.511 296.331 309.234 296.405 308.989 296.512C308.743 296.619 308.541 296.773 308.381 296.976C308.231 297.168 308.157 297.435 308.157 297.776C308.157 298 308.199 298.192 308.285 298.352C308.381 298.501 308.498 298.624 308.637 298.72C308.786 298.816 308.957 298.885 309.149 298.928C309.341 298.971 309.543 298.992 309.757 298.992C310.205 298.992 310.589 298.933 310.909 298.816C311.229 298.688 311.49 298.533 311.693 298.352C311.895 298.16 312.045 297.957 312.141 297.744C312.237 297.52 312.285 297.312 312.285 297.12V295.728ZM315.806 291.728V303.152H317.166V298.896H317.198C317.348 299.141 317.529 299.349 317.742 299.52C317.966 299.68 318.201 299.808 318.446 299.904C318.692 300 318.937 300.069 319.182 300.112C319.438 300.155 319.668 300.176 319.87 300.176C320.5 300.176 321.049 300.064 321.518 299.84C321.998 299.616 322.393 299.312 322.702 298.928C323.022 298.533 323.257 298.075 323.406 297.552C323.566 297.029 323.646 296.475 323.646 295.888C323.646 295.301 323.566 294.747 323.406 294.224C323.246 293.701 323.006 293.243 322.686 292.848C322.377 292.443 321.982 292.123 321.502 291.888C321.033 291.653 320.478 291.536 319.838 291.536C319.262 291.536 318.734 291.643 318.254 291.856C317.774 292.059 317.422 292.389 317.198 292.848H317.166V291.728H315.806ZM322.206 295.792C322.206 296.197 322.164 296.592 322.078 296.976C321.993 297.36 321.854 297.701 321.662 298C321.47 298.299 321.214 298.539 320.894 298.72C320.585 298.901 320.196 298.992 319.726 298.992C319.257 298.992 318.857 298.907 318.526 298.736C318.196 298.555 317.924 298.32 317.71 298.032C317.508 297.744 317.358 297.413 317.262 297.04C317.166 296.656 317.118 296.261 317.118 295.856C317.118 295.472 317.161 295.093 317.246 294.72C317.342 294.347 317.492 294.016 317.694 293.728C317.897 293.429 318.158 293.189 318.478 293.008C318.798 292.827 319.188 292.736 319.646 292.736C320.084 292.736 320.462 292.821 320.782 292.992C321.113 293.163 321.38 293.392 321.582 293.68C321.796 293.968 321.95 294.299 322.046 294.672C322.153 295.035 322.206 295.408 322.206 295.792ZM326.683 290.24V288.576H325.323V290.24H326.683ZM325.323 291.728V300H326.683V291.728H325.323ZM329.782 295.936C329.782 295.531 329.824 295.136 329.91 294.752C329.995 294.368 330.134 294.027 330.326 293.728C330.518 293.429 330.774 293.189 331.094 293.008C331.414 292.827 331.803 292.736 332.262 292.736C332.731 292.736 333.131 292.827 333.462 293.008C333.792 293.179 334.059 293.408 334.262 293.696C334.475 293.984 334.63 294.32 334.726 294.704C334.822 295.077 334.87 295.467 334.87 295.872C334.87 296.256 334.822 296.635 334.726 297.008C334.64 297.381 334.496 297.717 334.294 298.016C334.091 298.304 333.83 298.539 333.51 298.72C333.19 298.901 332.8 298.992 332.342 298.992C331.904 298.992 331.52 298.907 331.19 298.736C330.87 298.565 330.603 298.336 330.39 298.048C330.187 297.76 330.032 297.435 329.926 297.072C329.83 296.699 329.782 296.32 329.782 295.936ZM336.182 300V288.576H334.822V292.832H334.79C334.64 292.587 334.454 292.384 334.23 292.224C334.016 292.053 333.787 291.92 333.542 291.824C333.296 291.717 333.051 291.643 332.806 291.6C332.56 291.557 332.331 291.536 332.118 291.536C331.488 291.536 330.934 291.653 330.454 291.888C329.984 292.112 329.59 292.421 329.27 292.816C328.96 293.2 328.726 293.653 328.566 294.176C328.416 294.699 328.342 295.253 328.342 295.84C328.342 296.427 328.422 296.981 328.582 297.504C328.742 298.027 328.976 298.485 329.286 298.88C329.606 299.275 330 299.589 330.47 299.824C330.95 300.059 331.51 300.176 332.15 300.176C332.726 300.176 333.254 300.075 333.734 299.872C334.214 299.669 334.566 299.339 334.79 298.88H334.822V300H336.182ZM342.775 291.728V303.152H344.135V298.896H344.167C344.316 299.141 344.498 299.349 344.711 299.52C344.935 299.68 345.17 299.808 345.415 299.904C345.66 300 345.906 300.069 346.151 300.112C346.407 300.155 346.636 300.176 346.839 300.176C347.468 300.176 348.018 300.064 348.487 299.84C348.967 299.616 349.362 299.312 349.671 298.928C349.991 298.533 350.226 298.075 350.375 297.552C350.535 297.029 350.615 296.475 350.615 295.888C350.615 295.301 350.535 294.747 350.375 294.224C350.215 293.701 349.975 293.243 349.655 292.848C349.346 292.443 348.951 292.123 348.471 291.888C348.002 291.653 347.447 291.536 346.807 291.536C346.231 291.536 345.703 291.643 345.223 291.856C344.743 292.059 344.391 292.389 344.167 292.848H344.135V291.728H342.775ZM349.175 295.792C349.175 296.197 349.132 296.592 349.047 296.976C348.962 297.36 348.823 297.701 348.631 298C348.439 298.299 348.183 298.539 347.863 298.72C347.554 298.901 347.164 298.992 346.695 298.992C346.226 298.992 345.826 298.907 345.495 298.736C345.164 298.555 344.892 298.32 344.679 298.032C344.476 297.744 344.327 297.413 344.231 297.04C344.135 296.656 344.087 296.261 344.087 295.856C344.087 295.472 344.13 295.093 344.215 294.72C344.311 294.347 344.46 294.016 344.663 293.728C344.866 293.429 345.127 293.189 345.447 293.008C345.767 292.827 346.156 292.736 346.615 292.736C347.052 292.736 347.431 292.821 347.751 292.992C348.082 293.163 348.348 293.392 348.551 293.68C348.764 293.968 348.919 294.299 349.015 294.672C349.122 295.035 349.175 295.408 349.175 295.792ZM352.164 291.728V300H353.524V296.32C353.524 295.787 353.577 295.317 353.684 294.912C353.79 294.496 353.961 294.144 354.196 293.856C354.43 293.568 354.74 293.349 355.124 293.2C355.508 293.051 355.972 292.976 356.516 292.976V291.536C355.78 291.515 355.172 291.664 354.692 291.984C354.212 292.304 353.806 292.8 353.476 293.472H353.444V291.728H352.164ZM358.25 295.872C358.25 295.371 358.314 294.928 358.442 294.544C358.581 294.149 358.768 293.819 359.002 293.552C359.237 293.285 359.509 293.083 359.818 292.944C360.138 292.805 360.474 292.736 360.826 292.736C361.178 292.736 361.509 292.805 361.818 292.944C362.138 293.083 362.416 293.285 362.65 293.552C362.885 293.819 363.066 294.149 363.194 294.544C363.333 294.928 363.402 295.371 363.402 295.872C363.402 296.373 363.333 296.821 363.194 297.216C363.066 297.6 362.885 297.925 362.65 298.192C362.416 298.448 362.138 298.645 361.818 298.784C361.509 298.923 361.178 298.992 360.826 298.992C360.474 298.992 360.138 298.923 359.818 298.784C359.509 298.645 359.237 298.448 359.002 298.192C358.768 297.925 358.581 297.6 358.442 297.216C358.314 296.821 358.25 296.373 358.25 295.872ZM356.81 295.872C356.81 296.48 356.896 297.045 357.066 297.568C357.237 298.091 357.493 298.549 357.834 298.944C358.176 299.328 358.597 299.632 359.098 299.856C359.6 300.069 360.176 300.176 360.826 300.176C361.488 300.176 362.064 300.069 362.554 299.856C363.056 299.632 363.477 299.328 363.818 298.944C364.16 298.549 364.416 298.091 364.586 297.568C364.757 297.045 364.842 296.48 364.842 295.872C364.842 295.264 364.757 294.699 364.586 294.176C364.416 293.643 364.16 293.184 363.818 292.8C363.477 292.405 363.056 292.096 362.554 291.872C362.064 291.648 361.488 291.536 360.826 291.536C360.176 291.536 359.6 291.648 359.098 291.872C358.597 292.096 358.176 292.405 357.834 292.8C357.493 293.184 357.237 293.643 357.066 294.176C356.896 294.699 356.81 295.264 356.81 295.872ZM368.334 291.728V289.248H366.974V291.728H365.566V292.928H366.974V298.192C366.974 298.576 367.011 298.885 367.086 299.12C367.161 299.355 367.273 299.536 367.422 299.664C367.582 299.792 367.785 299.883 368.03 299.936C368.286 299.979 368.59 300 368.942 300H369.982V298.8H369.358C369.145 298.8 368.969 298.795 368.83 298.784C368.702 298.763 368.601 298.725 368.526 298.672C368.451 298.619 368.398 298.544 368.366 298.448C368.345 298.352 368.334 298.224 368.334 298.064V292.928H369.982V291.728H368.334ZM372.485 295.872C372.485 295.371 372.549 294.928 372.677 294.544C372.815 294.149 373.002 293.819 373.237 293.552C373.471 293.285 373.743 293.083 374.053 292.944C374.373 292.805 374.709 292.736 375.061 292.736C375.413 292.736 375.743 292.805 376.053 292.944C376.373 293.083 376.65 293.285 376.885 293.552C377.119 293.819 377.301 294.149 377.429 294.544C377.567 294.928 377.637 295.371 377.637 295.872C377.637 296.373 377.567 296.821 377.429 297.216C377.301 297.6 377.119 297.925 376.885 298.192C376.65 298.448 376.373 298.645 376.053 298.784C375.743 298.923 375.413 298.992 375.061 298.992C374.709 298.992 374.373 298.923 374.053 298.784C373.743 298.645 373.471 298.448 373.237 298.192C373.002 297.925 372.815 297.6 372.677 297.216C372.549 296.821 372.485 296.373 372.485 295.872ZM371.045 295.872C371.045 296.48 371.13 297.045 371.301 297.568C371.471 298.091 371.727 298.549 372.069 298.944C372.41 299.328 372.831 299.632 373.333 299.856C373.834 300.069 374.41 300.176 375.061 300.176C375.722 300.176 376.298 300.069 376.789 299.856C377.29 299.632 377.711 299.328 378.053 298.944C378.394 298.549 378.65 298.091 378.821 297.568C378.991 297.045 379.077 296.48 379.077 295.872C379.077 295.264 378.991 294.699 378.821 294.176C378.65 293.643 378.394 293.184 378.053 292.8C377.711 292.405 377.29 292.096 376.789 291.872C376.298 291.648 375.722 291.536 375.061 291.536C374.41 291.536 373.834 291.648 373.333 291.872C372.831 292.096 372.41 292.405 372.069 292.8C371.727 293.184 371.471 293.643 371.301 294.176C371.13 294.699 371.045 295.264 371.045 295.872ZM382.568 291.728V289.248H381.208V291.728H379.8V292.928H381.208V298.192C381.208 298.576 381.246 298.885 381.32 299.12C381.395 299.355 381.507 299.536 381.656 299.664C381.816 299.792 382.019 299.883 382.264 299.936C382.52 299.979 382.824 300 383.176 300H384.216V298.8H383.592C383.379 298.8 383.203 298.795 383.064 298.784C382.936 298.763 382.835 298.725 382.76 298.672C382.686 298.619 382.632 298.544 382.6 298.448C382.579 298.352 382.568 298.224 382.568 298.064V292.928H384.216V291.728H382.568ZM388.975 301.104C388.815 301.509 388.655 301.851 388.495 302.128C388.346 302.405 388.175 302.629 387.983 302.8C387.802 302.981 387.594 303.109 387.359 303.184C387.135 303.269 386.874 303.312 386.575 303.312C386.415 303.312 386.255 303.301 386.095 303.28C385.935 303.259 385.78 303.221 385.631 303.168V301.92C385.748 301.973 385.882 302.016 386.031 302.048C386.191 302.091 386.324 302.112 386.431 302.112C386.708 302.112 386.938 302.043 387.119 301.904C387.311 301.776 387.455 301.589 387.551 301.344L388.111 299.952L384.831 291.728H386.367L388.783 298.496H388.815L391.135 291.728H392.575L388.975 301.104ZM393.775 291.728V303.152H395.135V298.896H395.167C395.316 299.141 395.498 299.349 395.711 299.52C395.935 299.68 396.17 299.808 396.415 299.904C396.66 300 396.906 300.069 397.151 300.112C397.407 300.155 397.636 300.176 397.839 300.176C398.468 300.176 399.018 300.064 399.487 299.84C399.967 299.616 400.362 299.312 400.671 298.928C400.991 298.533 401.226 298.075 401.375 297.552C401.535 297.029 401.615 296.475 401.615 295.888C401.615 295.301 401.535 294.747 401.375 294.224C401.215 293.701 400.975 293.243 400.655 292.848C400.346 292.443 399.951 292.123 399.471 291.888C399.002 291.653 398.447 291.536 397.807 291.536C397.231 291.536 396.703 291.643 396.223 291.856C395.743 292.059 395.391 292.389 395.167 292.848H395.135V291.728H393.775ZM400.175 295.792C400.175 296.197 400.132 296.592 400.047 296.976C399.962 297.36 399.823 297.701 399.631 298C399.439 298.299 399.183 298.539 398.863 298.72C398.554 298.901 398.164 298.992 397.695 298.992C397.226 298.992 396.826 298.907 396.495 298.736C396.164 298.555 395.892 298.32 395.679 298.032C395.476 297.744 395.327 297.413 395.231 297.04C395.135 296.656 395.087 296.261 395.087 295.856C395.087 295.472 395.13 295.093 395.215 294.72C395.311 294.347 395.46 294.016 395.663 293.728C395.866 293.429 396.127 293.189 396.447 293.008C396.767 292.827 397.156 292.736 397.615 292.736C398.052 292.736 398.431 292.821 398.751 292.992C399.082 293.163 399.348 293.392 399.551 293.68C399.764 293.968 399.919 294.299 400.015 294.672C400.122 295.035 400.175 295.408 400.175 295.792ZM404.652 290.24V288.576H403.292V290.24H404.652ZM403.292 291.728V300H404.652V291.728H403.292ZM406.758 291.728V300H408.118V295.328C408.118 294.955 408.166 294.613 408.262 294.304C408.369 293.984 408.524 293.707 408.726 293.472C408.929 293.237 409.18 293.056 409.478 292.928C409.788 292.8 410.15 292.736 410.566 292.736C411.089 292.736 411.5 292.885 411.798 293.184C412.097 293.483 412.246 293.888 412.246 294.4V300H413.606V294.56C413.606 294.112 413.558 293.707 413.462 293.344C413.377 292.971 413.222 292.651 412.998 292.384C412.774 292.117 412.481 291.909 412.118 291.76C411.756 291.611 411.302 291.536 410.758 291.536C409.532 291.536 408.636 292.037 408.07 293.04H408.038V291.728H406.758ZM422.785 299.296V291.728H421.505V292.912H421.489C421.244 292.453 420.902 292.112 420.465 291.888C420.028 291.653 419.548 291.536 419.025 291.536C418.31 291.536 417.708 291.675 417.217 291.952C416.726 292.219 416.332 292.565 416.033 292.992C415.734 293.408 415.521 293.877 415.393 294.4C415.265 294.912 415.201 295.413 415.201 295.904C415.201 296.469 415.276 297.008 415.425 297.52C415.585 298.021 415.82 298.464 416.129 298.848C416.438 299.221 416.822 299.52 417.281 299.744C417.74 299.968 418.278 300.08 418.897 300.08C419.43 300.08 419.932 299.963 420.401 299.728C420.881 299.483 421.238 299.104 421.473 298.592H421.505V299.136C421.505 299.595 421.457 300.016 421.361 300.4C421.276 300.784 421.132 301.109 420.929 301.376C420.726 301.653 420.47 301.867 420.161 302.016C419.852 302.176 419.473 302.256 419.025 302.256C418.801 302.256 418.566 302.229 418.321 302.176C418.076 302.133 417.846 302.059 417.633 301.952C417.43 301.845 417.254 301.707 417.105 301.536C416.966 301.365 416.892 301.157 416.881 300.912H415.521C415.542 301.36 415.66 301.739 415.873 302.048C416.086 302.357 416.353 302.608 416.673 302.8C417.004 302.992 417.366 303.131 417.761 303.216C418.166 303.301 418.561 303.344 418.945 303.344C420.268 303.344 421.238 303.008 421.857 302.336C422.476 301.664 422.785 300.651 422.785 299.296ZM418.977 298.896C418.529 298.896 418.156 298.805 417.857 298.624C417.558 298.432 417.318 298.187 417.137 297.888C416.956 297.579 416.828 297.237 416.753 296.864C416.678 296.491 416.641 296.117 416.641 295.744C416.641 295.349 416.684 294.971 416.769 294.608C416.865 294.245 417.009 293.925 417.201 293.648C417.404 293.371 417.66 293.152 417.969 292.992C418.278 292.821 418.652 292.736 419.089 292.736C419.516 292.736 419.878 292.821 420.177 292.992C420.476 293.163 420.716 293.392 420.897 293.68C421.089 293.957 421.228 294.272 421.313 294.624C421.398 294.976 421.441 295.333 421.441 295.696C421.441 296.08 421.393 296.464 421.297 296.848C421.212 297.232 421.073 297.579 420.881 297.888C420.689 298.187 420.433 298.432 420.113 298.624C419.804 298.805 419.425 298.896 418.977 298.896Z" fill="white"/>
<path d="M398 98L396.619 86.5359L387.381 93.4641L398 98Z" fill="#575757"/>
<path d="M431 190L436.774 180L425.226 180L431 190Z" fill="#575757"/>
<path d="M394 277L404.619 272.464L395.381 265.536L394 277Z" fill="#575757"/>
<path d="M209 281L211.989 292.154L220.154 283.989L209 281Z" fill="#575757"/>
<path d="M260 59L248.474 58.3082L253.638 68.6361L260 59Z" fill="#575757"/>
<path d="M371 207L366.558 196.342L359.549 205.518L371 207ZM226.393 97.7947L363.241 202.331L364.455 200.742L227.607 96.2053L226.393 97.7947Z" fill="#575757"/>
<path d="M356 277L354.489 265.552L345.33 272.585L356 277ZM226.207 109.609L349.726 270.471L351.312 269.253L227.793 108.391L226.207 109.609Z" fill="#575757"/>
<path d="M204 246L211.004 236.819L199.551 235.344L204 246ZM220.008 113.872L204.158 236.946L206.141 237.201L221.992 114.128L220.008 113.872Z" fill="#575757"/>
<path d="M198 149L207.246 142.083L196.633 137.534L198 149ZM212.081 113.606L200.626 140.334L202.464 141.122L213.919 114.394L212.081 113.606Z" fill="#575757"/>
<rect width="73" height="36" transform="translate(163 79)" fill="#171717"/>
<path d="M173.831 101.72V92.856H176.391C177.095 92.856 177.687 92.9573 178.167 93.16C178.647 93.352 179.036 93.64 179.335 94.024C179.644 94.3973 179.863 94.856 179.991 95.4C180.129 95.9333 180.199 96.5413 180.199 97.224C180.199 97.928 180.124 98.5307 179.975 99.032C179.836 99.5227 179.655 99.9333 179.431 100.264C179.207 100.595 178.951 100.856 178.663 101.048C178.385 101.24 178.103 101.389 177.815 101.496C177.527 101.592 177.255 101.656 176.999 101.688C176.743 101.709 176.529 101.72 176.359 101.72H173.831ZM172.311 91.576V103H176.231C177.18 103 178.001 102.867 178.695 102.6C179.388 102.333 179.959 101.949 180.407 101.448C180.855 100.936 181.185 100.312 181.399 99.576C181.612 98.8293 181.719 97.976 181.719 97.016C181.719 95.1813 181.244 93.816 180.295 92.92C179.345 92.024 177.991 91.576 176.231 91.576H172.311ZM189.096 98.072H184.344C184.365 97.752 184.435 97.4533 184.552 97.176C184.669 96.888 184.829 96.6373 185.032 96.424C185.235 96.2107 185.475 96.0453 185.752 95.928C186.04 95.8 186.36 95.736 186.712 95.736C187.053 95.736 187.363 95.8 187.64 95.928C187.928 96.0453 188.173 96.2107 188.376 96.424C188.589 96.6267 188.755 96.872 188.872 97.16C189 97.448 189.075 97.752 189.096 98.072ZM190.408 100.376H189.064C188.947 100.92 188.701 101.325 188.328 101.592C187.965 101.859 187.496 101.992 186.92 101.992C186.472 101.992 186.083 101.917 185.752 101.768C185.421 101.619 185.149 101.421 184.936 101.176C184.723 100.92 184.568 100.632 184.472 100.312C184.376 99.9813 184.333 99.6347 184.344 99.272H190.536C190.557 98.7707 190.509 98.2427 190.392 97.688C190.285 97.1333 190.083 96.6213 189.784 96.152C189.496 95.6827 189.107 95.2987 188.616 95C188.136 94.6907 187.528 94.536 186.792 94.536C186.227 94.536 185.704 94.6427 185.224 94.856C184.755 95.0693 184.344 95.368 183.992 95.752C183.651 96.136 183.384 96.5893 183.192 97.112C183 97.6347 182.904 98.2107 182.904 98.84C182.925 99.4693 183.016 100.051 183.176 100.584C183.347 101.117 183.597 101.576 183.928 101.96C184.259 102.344 184.664 102.643 185.144 102.856C185.635 103.069 186.211 103.176 186.872 103.176C187.811 103.176 188.589 102.941 189.208 102.472C189.827 102.003 190.227 101.304 190.408 100.376ZM192.026 91.576V103H193.386V91.576H192.026ZM196.933 93.24V91.576H195.573V93.24H196.933ZM195.573 94.728V103H196.933V94.728H195.573ZM202.768 103L205.792 94.728H204.368L202.112 101.624H202.08L199.76 94.728H198.24L201.312 103H202.768ZM212.784 98.072H208.032C208.053 97.752 208.122 97.4533 208.24 97.176C208.357 96.888 208.517 96.6373 208.72 96.424C208.922 96.2107 209.162 96.0453 209.44 95.928C209.728 95.8 210.048 95.736 210.4 95.736C210.741 95.736 211.05 95.8 211.328 95.928C211.616 96.0453 211.861 96.2107 212.064 96.424C212.277 96.6267 212.442 96.872 212.56 97.16C212.688 97.448 212.762 97.752 212.784 98.072ZM214.096 100.376H212.752C212.634 100.92 212.389 101.325 212.016 101.592C211.653 101.859 211.184 101.992 210.608 101.992C210.16 101.992 209.77 101.917 209.44 101.768C209.109 101.619 208.837 101.421 208.624 101.176C208.41 100.92 208.256 100.632 208.16 100.312C208.064 99.9813 208.021 99.6347 208.032 99.272H214.224C214.245 98.7707 214.197 98.2427 214.08 97.688C213.973 97.1333 213.77 96.6213 213.472 96.152C213.184 95.6827 212.794 95.2987 212.304 95C211.824 94.6907 211.216 94.536 210.48 94.536C209.914 94.536 209.392 94.6427 208.912 94.856C208.442 95.0693 208.032 95.368 207.68 95.752C207.338 96.136 207.072 96.5893 206.88 97.112C206.688 97.6347 206.592 98.2107 206.592 98.84C206.613 99.4693 206.704 100.051 206.864 100.584C207.034 101.117 207.285 101.576 207.616 101.96C207.946 102.344 208.352 102.643 208.832 102.856C209.322 103.069 209.898 103.176 210.56 103.176C211.498 103.176 212.277 102.941 212.896 102.472C213.514 102.003 213.914 101.304 214.096 100.376ZM215.585 94.728V103H216.945V99.32C216.945 98.7867 216.999 98.3173 217.105 97.912C217.212 97.496 217.383 97.144 217.617 96.856C217.852 96.568 218.161 96.3493 218.545 96.2C218.929 96.0507 219.393 95.976 219.937 95.976V94.536C219.201 94.5147 218.593 94.664 218.113 94.984C217.633 95.304 217.228 95.8 216.897 96.472H216.865V94.728H215.585ZM224.21 104.104C224.05 104.509 223.89 104.851 223.73 105.128C223.58 105.405 223.41 105.629 223.218 105.8C223.036 105.981 222.828 106.109 222.594 106.184C222.37 106.269 222.108 106.312 221.81 106.312C221.65 106.312 221.49 106.301 221.33 106.28C221.17 106.259 221.015 106.221 220.866 106.168V104.92C220.983 104.973 221.116 105.016 221.266 105.048C221.426 105.091 221.559 105.112 221.666 105.112C221.943 105.112 222.172 105.043 222.354 104.904C222.546 104.776 222.69 104.589 222.786 104.344L223.346 102.952L220.066 94.728H221.602L224.018 101.496H224.049L226.37 94.728H227.81L224.21 104.104Z" fill="white"/>
<path d="M190 114L179.163 117.986L188.033 125.378L190 114Z" fill="#575757"/>
<rect width="75" height="36" transform="translate(123 149)" fill="#171717"/>
<path d="M132.625 161.576V173H134.145V161.576H132.625ZM138.365 164.728V162.248H137.005V164.728H135.597V165.928H137.005V171.192C137.005 171.576 137.042 171.885 137.117 172.12C137.192 172.355 137.304 172.536 137.453 172.664C137.613 172.792 137.816 172.883 138.061 172.936C138.317 172.979 138.621 173 138.973 173H140.013V171.8H139.389C139.176 171.8 139 171.795 138.861 171.784C138.733 171.763 138.632 171.725 138.557 171.672C138.482 171.619 138.429 171.544 138.397 171.448C138.376 171.352 138.365 171.224 138.365 171.064V165.928H140.013V164.728H138.365ZM147.268 168.072H142.516C142.537 167.752 142.607 167.453 142.724 167.176C142.841 166.888 143.001 166.637 143.204 166.424C143.407 166.211 143.647 166.045 143.924 165.928C144.212 165.8 144.532 165.736 144.884 165.736C145.225 165.736 145.535 165.8 145.812 165.928C146.1 166.045 146.345 166.211 146.548 166.424C146.761 166.627 146.927 166.872 147.044 167.16C147.172 167.448 147.247 167.752 147.268 168.072ZM148.58 170.376H147.236C147.119 170.92 146.873 171.325 146.5 171.592C146.137 171.859 145.668 171.992 145.092 171.992C144.644 171.992 144.255 171.917 143.924 171.768C143.593 171.619 143.321 171.421 143.108 171.176C142.895 170.92 142.74 170.632 142.644 170.312C142.548 169.981 142.505 169.635 142.516 169.272H148.708C148.729 168.771 148.681 168.243 148.564 167.688C148.457 167.133 148.255 166.621 147.956 166.152C147.668 165.683 147.279 165.299 146.788 165C146.308 164.691 145.7 164.536 144.964 164.536C144.399 164.536 143.876 164.643 143.396 164.856C142.927 165.069 142.516 165.368 142.164 165.752C141.823 166.136 141.556 166.589 141.364 167.112C141.172 167.635 141.076 168.211 141.076 168.84C141.097 169.469 141.188 170.051 141.348 170.584C141.519 171.117 141.769 171.576 142.1 171.96C142.431 172.344 142.836 172.643 143.316 172.856C143.807 173.069 144.383 173.176 145.044 173.176C145.983 173.176 146.761 172.941 147.38 172.472C147.999 172.003 148.399 171.304 148.58 170.376ZM150.07 164.728V173H151.43V169.32C151.43 168.787 151.483 168.317 151.59 167.912C151.696 167.496 151.867 167.144 152.102 166.856C152.336 166.568 152.646 166.349 153.03 166.2C153.414 166.051 153.878 165.976 154.422 165.976V164.536C153.686 164.515 153.078 164.664 152.598 164.984C152.118 165.304 151.712 165.8 151.382 166.472H151.35V164.728H150.07ZM162.774 172.968C162.539 173.107 162.214 173.176 161.798 173.176C161.446 173.176 161.163 173.08 160.95 172.888C160.747 172.685 160.646 172.36 160.646 171.912C160.273 172.36 159.835 172.685 159.334 172.888C158.843 173.08 158.31 173.176 157.734 173.176C157.361 173.176 157.003 173.133 156.662 173.048C156.331 172.963 156.043 172.829 155.798 172.648C155.553 172.467 155.355 172.232 155.206 171.944C155.067 171.645 154.998 171.288 154.998 170.872C154.998 170.403 155.078 170.019 155.238 169.72C155.398 169.421 155.606 169.181 155.862 169C156.129 168.808 156.427 168.664 156.758 168.568C157.099 168.472 157.446 168.392 157.798 168.328C158.171 168.253 158.523 168.2 158.854 168.168C159.195 168.125 159.494 168.072 159.75 168.008C160.006 167.933 160.209 167.832 160.358 167.704C160.507 167.565 160.582 167.368 160.582 167.112C160.582 166.813 160.523 166.573 160.406 166.392C160.299 166.211 160.155 166.072 159.974 165.976C159.803 165.88 159.606 165.816 159.382 165.784C159.169 165.752 158.955 165.736 158.742 165.736C158.166 165.736 157.686 165.848 157.302 166.072C156.918 166.285 156.71 166.696 156.678 167.304H155.318C155.339 166.792 155.446 166.36 155.638 166.008C155.83 165.656 156.086 165.373 156.406 165.16C156.726 164.936 157.089 164.776 157.494 164.68C157.91 164.584 158.353 164.536 158.822 164.536C159.195 164.536 159.563 164.563 159.926 164.616C160.299 164.669 160.635 164.781 160.934 164.952C161.233 165.112 161.473 165.341 161.654 165.64C161.835 165.939 161.926 166.328 161.926 166.808V171.064C161.926 171.384 161.942 171.619 161.974 171.768C162.017 171.917 162.145 171.992 162.358 171.992C162.475 171.992 162.614 171.965 162.774 171.912V172.968ZM160.566 168.728C160.395 168.856 160.171 168.952 159.894 169.016C159.617 169.069 159.323 169.117 159.014 169.16C158.715 169.192 158.411 169.235 158.102 169.288C157.793 169.331 157.515 169.405 157.27 169.512C157.025 169.619 156.822 169.773 156.662 169.976C156.513 170.168 156.438 170.435 156.438 170.776C156.438 171 156.481 171.192 156.566 171.352C156.662 171.501 156.779 171.624 156.918 171.72C157.067 171.816 157.238 171.885 157.43 171.928C157.622 171.971 157.825 171.992 158.038 171.992C158.486 171.992 158.87 171.933 159.19 171.816C159.51 171.688 159.771 171.533 159.974 171.352C160.177 171.16 160.326 170.957 160.422 170.744C160.518 170.52 160.566 170.312 160.566 170.12V168.728ZM165.928 164.728V162.248H164.568V164.728H163.16V165.928H164.568V171.192C164.568 171.576 164.605 171.885 164.68 172.12C164.754 172.355 164.866 172.536 165.016 172.664C165.176 172.792 165.378 172.883 165.624 172.936C165.88 172.979 166.184 173 166.536 173H167.576V171.8H166.952C166.738 171.8 166.562 171.795 166.424 171.784C166.296 171.763 166.194 171.725 166.12 171.672C166.045 171.619 165.992 171.544 165.96 171.448C165.938 171.352 165.928 171.224 165.928 171.064V165.928H167.576V164.728H165.928ZM170.527 163.24V161.576H169.167V163.24H170.527ZM169.167 164.728V173H170.527V164.728H169.167ZM172.633 164.728V173H173.993V168.328C173.993 167.955 174.041 167.613 174.137 167.304C174.244 166.984 174.399 166.707 174.601 166.472C174.804 166.237 175.055 166.056 175.353 165.928C175.663 165.8 176.025 165.736 176.441 165.736C176.964 165.736 177.375 165.885 177.673 166.184C177.972 166.483 178.121 166.888 178.121 167.4V173H179.481V167.56C179.481 167.112 179.433 166.707 179.337 166.344C179.252 165.971 179.097 165.651 178.873 165.384C178.649 165.117 178.356 164.909 177.993 164.76C177.631 164.611 177.177 164.536 176.633 164.536C175.407 164.536 174.511 165.037 173.945 166.04H173.913V164.728H172.633ZM188.66 172.296V164.728H187.38V165.912H187.364C187.119 165.453 186.777 165.112 186.34 164.888C185.903 164.653 185.423 164.536 184.9 164.536C184.185 164.536 183.583 164.675 183.092 164.952C182.601 165.219 182.207 165.565 181.908 165.992C181.609 166.408 181.396 166.877 181.268 167.4C181.14 167.912 181.076 168.413 181.076 168.904C181.076 169.469 181.151 170.008 181.3 170.52C181.46 171.021 181.695 171.464 182.004 171.848C182.313 172.221 182.697 172.52 183.156 172.744C183.615 172.968 184.153 173.08 184.772 173.08C185.305 173.08 185.807 172.963 186.276 172.728C186.756 172.483 187.113 172.104 187.348 171.592H187.38V172.136C187.38 172.595 187.332 173.016 187.236 173.4C187.151 173.784 187.007 174.109 186.804 174.376C186.601 174.653 186.345 174.867 186.036 175.016C185.727 175.176 185.348 175.256 184.9 175.256C184.676 175.256 184.441 175.229 184.196 175.176C183.951 175.133 183.721 175.059 183.508 174.952C183.305 174.845 183.129 174.707 182.98 174.536C182.841 174.365 182.767 174.157 182.756 173.912H181.396C181.417 174.36 181.535 174.739 181.748 175.048C181.961 175.357 182.228 175.608 182.548 175.8C182.879 175.992 183.241 176.131 183.636 176.216C184.041 176.301 184.436 176.344 184.82 176.344C186.143 176.344 187.113 176.008 187.732 175.336C188.351 174.664 188.66 173.651 188.66 172.296ZM184.852 171.896C184.404 171.896 184.031 171.805 183.732 171.624C183.433 171.432 183.193 171.187 183.012 170.888C182.831 170.579 182.703 170.237 182.628 169.864C182.553 169.491 182.516 169.117 182.516 168.744C182.516 168.349 182.559 167.971 182.644 167.608C182.74 167.245 182.884 166.925 183.076 166.648C183.279 166.371 183.535 166.152 183.844 165.992C184.153 165.821 184.527 165.736 184.964 165.736C185.391 165.736 185.753 165.821 186.052 165.992C186.351 166.163 186.591 166.392 186.772 166.68C186.964 166.957 187.103 167.272 187.188 167.624C187.273 167.976 187.316 168.333 187.316 168.696C187.316 169.08 187.268 169.464 187.172 169.848C187.087 170.232 186.948 170.579 186.756 170.888C186.564 171.187 186.308 171.432 185.988 171.624C185.679 171.805 185.3 171.896 184.852 171.896Z" fill="white"/>
<path d="M168 184L162.226 194L173.774 194L168 184Z" fill="#575757"/>
</svg>
