<svg width="383" height="106" viewBox="0 0 383 106" fill="none" xmlns="http://www.w3.org/2000/svg">
<path d="M15.048 35.94C16.28 35.984 17.512 35.896 18.744 35.676C19.976 35.456 21.076 35.082 22.044 34.554C23.012 33.982 23.782 33.212 24.354 32.244C24.97 31.276 25.278 30.088 25.278 28.68C25.278 26.7 24.596 25.116 23.232 23.928C21.912 22.74 20.196 22.146 18.084 22.146C16.764 22.146 15.62 22.41 14.652 22.938C13.684 23.466 12.87 24.192 12.21 25.116C11.594 25.996 11.132 27.008 10.824 28.152C10.516 29.252 10.384 30.396 10.428 31.584H2.904C2.992 29.34 3.41 27.272 4.158 25.38C4.906 23.444 5.918 21.772 7.194 20.364C8.514 18.956 10.098 17.856 11.946 17.064C13.794 16.272 15.884 15.876 18.216 15.876C20.02 15.876 21.78 16.14 23.496 16.668C25.256 17.196 26.818 17.966 28.182 18.978C29.59 19.99 30.712 21.288 31.548 22.872C32.384 24.412 32.802 26.194 32.802 28.218C32.802 30.55 32.274 32.596 31.218 34.356C30.162 36.072 28.512 37.326 26.268 38.118V38.25C28.908 38.778 30.954 40.098 32.406 42.21C33.902 44.278 34.65 46.808 34.65 49.8C34.65 52 34.21 53.98 33.33 55.74C32.45 57.456 31.262 58.93 29.766 60.162C28.27 61.35 26.532 62.274 24.552 62.934C22.572 63.594 20.482 63.924 18.282 63.924C15.598 63.924 13.244 63.55 11.22 62.802C9.24 62.01 7.568 60.91 6.204 59.502C4.884 58.094 3.872 56.4 3.168 54.42C2.464 52.44 2.09 50.24 2.046 47.82H9.57C9.482 50.636 10.164 52.99 11.616 54.882C13.112 56.73 15.334 57.654 18.282 57.654C20.79 57.654 22.88 56.95 24.552 55.542C26.268 54.09 27.126 52.044 27.126 49.404C27.126 47.6 26.774 46.17 26.07 45.114C25.366 44.058 24.442 43.266 23.298 42.738C22.154 42.166 20.856 41.814 19.404 41.682C17.996 41.55 16.544 41.506 15.048 41.55V35.94ZM41.2278 54.09H50.4018V63H41.2278V54.09Z" fill="white"/>
<path d="M64.132 14.936H66.602V33.5H64.132V14.936ZM70.3925 20.058H72.4725V22.034H72.5245C73.5298 20.5087 74.9772 19.746 76.8665 19.746C77.6985 19.746 78.4525 19.9193 79.1285 20.266C79.8045 20.6127 80.2812 21.202 80.5585 22.034C81.0092 21.306 81.5985 20.7427 82.3265 20.344C83.0718 19.9453 83.8865 19.746 84.7705 19.746C85.4465 19.746 86.0532 19.824 86.5905 19.98C87.1452 20.1187 87.6132 20.344 87.9945 20.656C88.3932 20.968 88.6965 21.3753 88.9045 21.878C89.1298 22.3633 89.2425 22.9527 89.2425 23.646V33.5H87.0325V24.686C87.0325 24.27 86.9979 23.88 86.9285 23.516C86.8592 23.152 86.7292 22.84 86.5385 22.58C86.3478 22.3027 86.0792 22.086 85.7325 21.93C85.4032 21.774 84.9699 21.696 84.4325 21.696C83.3405 21.696 82.4825 22.008 81.8585 22.632C81.2345 23.256 80.9225 24.088 80.9225 25.128V33.5H78.7125V24.686C78.7125 24.2527 78.6692 23.854 78.5825 23.49C78.5132 23.126 78.3832 22.814 78.1925 22.554C78.0018 22.2767 77.7418 22.0687 77.4125 21.93C77.1005 21.774 76.6932 21.696 76.1905 21.696C75.5492 21.696 74.9945 21.826 74.5265 22.086C74.0758 22.346 73.7032 22.658 73.4085 23.022C73.1312 23.386 72.9232 23.7673 72.7845 24.166C72.6632 24.5473 72.6025 24.868 72.6025 25.128V33.5H70.3925V20.058ZM92.6365 20.058H94.8465V21.878H94.8985C95.2625 21.1327 95.8345 20.5953 96.6145 20.266C97.3945 19.9193 98.2525 19.746 99.1885 19.746C100.229 19.746 101.13 19.9367 101.893 20.318C102.673 20.6993 103.314 21.2193 103.817 21.878C104.337 22.5193 104.727 23.2647 104.987 24.114C105.247 24.9633 105.377 25.8647 105.377 26.818C105.377 27.7713 105.247 28.6727 104.987 29.522C104.744 30.3713 104.363 31.1167 103.843 31.758C103.34 32.382 102.699 32.876 101.919 33.24C101.156 33.604 100.263 33.786 99.2405 33.786C98.9112 33.786 98.5385 33.7513 98.1225 33.682C97.7239 33.6127 97.3252 33.5 96.9265 33.344C96.5279 33.188 96.1465 32.98 95.7825 32.72C95.4359 32.4427 95.1412 32.1047 94.8985 31.706H94.8465V38.622H92.6365V20.058ZM103.037 26.662C103.037 26.038 102.95 25.4313 102.777 24.842C102.621 24.2353 102.369 23.698 102.023 23.23C101.693 22.762 101.26 22.3893 100.723 22.112C100.203 21.8347 99.5872 21.696 98.8765 21.696C98.1312 21.696 97.4985 21.8433 96.9785 22.138C96.4585 22.4327 96.0339 22.8227 95.7045 23.308C95.3752 23.776 95.1325 24.3133 94.9765 24.92C94.8379 25.5267 94.7685 26.142 94.7685 26.766C94.7685 27.4247 94.8465 28.066 95.0025 28.69C95.1585 29.2967 95.4012 29.834 95.7305 30.302C96.0772 30.77 96.5192 31.1513 97.0565 31.446C97.5939 31.7233 98.2439 31.862 99.0065 31.862C99.7692 31.862 100.402 31.7147 100.905 31.42C101.425 31.1253 101.841 30.7353 102.153 30.25C102.465 29.7647 102.69 29.21 102.829 28.586C102.967 27.962 103.037 27.3207 103.037 26.662ZM107.893 20.058H109.973V22.892H110.025C110.562 21.8 111.221 20.994 112.001 20.474C112.781 19.954 113.769 19.7113 114.965 19.746V22.086C114.081 22.086 113.327 22.2073 112.703 22.45C112.079 22.6927 111.576 23.048 111.195 23.516C110.813 23.984 110.536 24.556 110.363 25.232C110.189 25.8907 110.103 26.6533 110.103 27.52V33.5H107.893V20.058ZM117.784 26.792C117.784 27.6067 117.888 28.3347 118.096 28.976C118.321 29.6 118.624 30.1287 119.006 30.562C119.387 30.978 119.829 31.2987 120.332 31.524C120.852 31.7493 121.398 31.862 121.97 31.862C122.542 31.862 123.079 31.7493 123.582 31.524C124.102 31.2987 124.552 30.978 124.934 30.562C125.315 30.1287 125.61 29.6 125.818 28.976C126.043 28.3347 126.156 27.6067 126.156 26.792C126.156 25.9773 126.043 25.258 125.818 24.634C125.61 23.9927 125.315 23.4553 124.934 23.022C124.552 22.5887 124.102 22.2593 123.582 22.034C123.079 21.8087 122.542 21.696 121.97 21.696C121.398 21.696 120.852 21.8087 120.332 22.034C119.829 22.2593 119.387 22.5887 119.006 23.022C118.624 23.4553 118.321 23.9927 118.096 24.634C117.888 25.258 117.784 25.9773 117.784 26.792ZM115.444 26.792C115.444 25.804 115.582 24.8853 115.86 24.036C116.137 23.1693 116.553 22.424 117.108 21.8C117.662 21.1587 118.347 20.656 119.162 20.292C119.976 19.928 120.912 19.746 121.97 19.746C123.044 19.746 123.98 19.928 124.778 20.292C125.592 20.656 126.277 21.1587 126.832 21.8C127.386 22.424 127.802 23.1693 128.08 24.036C128.357 24.8853 128.496 25.804 128.496 26.792C128.496 27.78 128.357 28.6987 128.08 29.548C127.802 30.3973 127.386 31.1427 126.832 31.784C126.277 32.408 125.592 32.902 124.778 33.266C123.98 33.6127 123.044 33.786 121.97 33.786C120.912 33.786 119.976 33.6127 119.162 33.266C118.347 32.902 117.662 32.408 117.108 31.784C116.553 31.1427 116.137 30.3973 115.86 29.548C115.582 28.6987 115.444 27.78 115.444 26.792ZM137.16 33.5H134.794L129.802 20.058H132.272L136.042 31.264H136.094L139.76 20.058H142.074L137.16 33.5ZM153.436 25.492C153.401 24.972 153.28 24.478 153.072 24.01C152.881 23.542 152.612 23.1433 152.266 22.814C151.936 22.4673 151.538 22.1987 151.07 22.008C150.619 21.8 150.116 21.696 149.562 21.696C148.99 21.696 148.47 21.8 148.002 22.008C147.551 22.1987 147.161 22.4673 146.832 22.814C146.502 23.1607 146.242 23.568 146.052 24.036C145.861 24.4867 145.748 24.972 145.714 25.492H153.436ZM155.567 29.236C155.273 30.744 154.623 31.8793 153.618 32.642C152.612 33.4047 151.347 33.786 149.822 33.786C148.747 33.786 147.811 33.6127 147.014 33.266C146.234 32.9193 145.575 32.434 145.038 31.81C144.5 31.186 144.093 30.4407 143.816 29.574C143.556 28.7073 143.408 27.7627 143.374 26.74C143.374 25.7173 143.53 24.7813 143.842 23.932C144.154 23.0827 144.587 22.346 145.142 21.722C145.714 21.098 146.381 20.6127 147.144 20.266C147.924 19.9193 148.773 19.746 149.692 19.746C150.888 19.746 151.876 19.9973 152.656 20.5C153.453 20.9853 154.086 21.6093 154.554 22.372C155.039 23.1347 155.368 23.9667 155.542 24.868C155.732 25.7693 155.81 26.6273 155.776 27.442H145.714C145.696 28.0313 145.766 28.5947 145.922 29.132C146.078 29.652 146.329 30.12 146.676 30.536C147.022 30.9347 147.464 31.2553 148.002 31.498C148.539 31.7407 149.172 31.862 149.9 31.862C150.836 31.862 151.598 31.6453 152.188 31.212C152.794 30.7787 153.193 30.12 153.384 29.236H155.567ZM159.678 26.896C159.678 27.52 159.756 28.1353 159.912 28.742C160.086 29.3313 160.337 29.86 160.666 30.328C161.013 30.796 161.446 31.1687 161.966 31.446C162.504 31.7233 163.128 31.862 163.838 31.862C164.584 31.862 165.216 31.7147 165.736 31.42C166.256 31.1253 166.681 30.744 167.01 30.276C167.34 29.7907 167.574 29.2447 167.712 28.638C167.868 28.0313 167.946 27.416 167.946 26.792C167.946 26.1333 167.868 25.5007 167.712 24.894C167.556 24.27 167.305 23.724 166.958 23.256C166.629 22.788 166.196 22.4153 165.658 22.138C165.121 21.8433 164.471 21.696 163.708 21.696C162.963 21.696 162.33 21.8433 161.81 22.138C161.29 22.4327 160.874 22.8227 160.562 23.308C160.25 23.7933 160.025 24.348 159.886 24.972C159.748 25.596 159.678 26.2373 159.678 26.896ZM170.078 33.5H167.868V31.68H167.816C167.452 32.4253 166.88 32.9627 166.1 33.292C165.32 33.6213 164.462 33.786 163.526 33.786C162.486 33.786 161.576 33.5953 160.796 33.214C160.034 32.8327 159.392 32.3213 158.872 31.68C158.37 31.0387 157.988 30.2933 157.728 29.444C157.468 28.5947 157.338 27.6933 157.338 26.74C157.338 25.7867 157.46 24.8853 157.702 24.036C157.962 23.1867 158.344 22.45 158.846 21.826C159.366 21.1847 160.008 20.682 160.77 20.318C161.55 19.9367 162.452 19.746 163.474 19.746C163.821 19.746 164.194 19.7807 164.592 19.85C164.991 19.9193 165.39 20.0407 165.788 20.214C166.187 20.37 166.56 20.5867 166.906 20.864C167.27 21.124 167.574 21.4533 167.816 21.852H167.868V14.936H170.078V33.5ZM192.623 33.448C192.241 33.6733 191.713 33.786 191.037 33.786C190.465 33.786 190.005 33.63 189.659 33.318C189.329 32.9887 189.165 32.46 189.165 31.732C188.558 32.46 187.847 32.9887 187.033 33.318C186.235 33.63 185.369 33.786 184.433 33.786C183.826 33.786 183.245 33.7167 182.691 33.578C182.153 33.4393 181.685 33.2227 181.287 32.928C180.888 32.6333 180.567 32.252 180.325 31.784C180.099 31.2987 179.987 30.718 179.987 30.042C179.987 29.2793 180.117 28.6553 180.377 28.17C180.637 27.6847 180.975 27.2947 181.391 27C181.824 26.688 182.309 26.454 182.847 26.298C183.401 26.142 183.965 26.012 184.537 25.908C185.143 25.7867 185.715 25.7 186.253 25.648C186.807 25.5787 187.293 25.492 187.709 25.388C188.125 25.2667 188.454 25.102 188.697 24.894C188.939 24.6687 189.061 24.348 189.061 23.932C189.061 23.4467 188.965 23.0567 188.775 22.762C188.601 22.4673 188.367 22.242 188.073 22.086C187.795 21.93 187.475 21.826 187.111 21.774C186.764 21.722 186.417 21.696 186.071 21.696C185.135 21.696 184.355 21.878 183.731 22.242C183.107 22.5887 182.769 23.256 182.717 24.244H180.507C180.541 23.412 180.715 22.71 181.027 22.138C181.339 21.566 181.755 21.1067 182.275 20.76C182.795 20.396 183.384 20.136 184.043 19.98C184.719 19.824 185.438 19.746 186.201 19.746C186.807 19.746 187.405 19.7893 187.995 19.876C188.601 19.9627 189.147 20.1447 189.633 20.422C190.118 20.682 190.508 21.0547 190.803 21.54C191.097 22.0253 191.245 22.658 191.245 23.438V30.354C191.245 30.874 191.271 31.2553 191.323 31.498C191.392 31.7407 191.6 31.862 191.947 31.862C192.137 31.862 192.363 31.8187 192.623 31.732V33.448ZM189.035 26.558C188.757 26.766 188.393 26.922 187.943 27.026C187.492 27.1127 187.015 27.1907 186.513 27.26C186.027 27.312 185.533 27.3813 185.031 27.468C184.528 27.5373 184.077 27.6587 183.679 27.832C183.28 28.0053 182.951 28.2567 182.691 28.586C182.448 28.898 182.327 29.3313 182.327 29.886C182.327 30.25 182.396 30.562 182.535 30.822C182.691 31.0647 182.881 31.264 183.107 31.42C183.349 31.576 183.627 31.6887 183.939 31.758C184.251 31.8273 184.58 31.862 184.927 31.862C185.655 31.862 186.279 31.7667 186.799 31.576C187.319 31.368 187.743 31.1167 188.073 30.822C188.402 30.51 188.645 30.1807 188.801 29.834C188.957 29.47 189.035 29.132 189.035 28.82V26.558ZM203.806 24.374C203.632 23.5247 203.268 22.866 202.714 22.398C202.159 21.93 201.414 21.696 200.478 21.696C199.68 21.696 199.013 21.8433 198.476 22.138C197.938 22.4327 197.505 22.8227 197.176 23.308C196.864 23.7933 196.638 24.3567 196.5 24.998C196.361 25.622 196.292 26.272 196.292 26.948C196.292 27.572 196.361 28.1787 196.5 28.768C196.656 29.3573 196.89 29.886 197.202 30.354C197.514 30.8047 197.921 31.1687 198.424 31.446C198.926 31.7233 199.524 31.862 200.218 31.862C201.31 31.862 202.159 31.576 202.766 31.004C203.39 30.432 203.771 29.626 203.91 28.586H206.172C205.929 30.25 205.305 31.5327 204.3 32.434C203.312 33.3353 201.96 33.786 200.244 33.786C199.221 33.786 198.311 33.6213 197.514 33.292C196.734 32.9627 196.075 32.4947 195.538 31.888C195.018 31.2813 194.619 30.562 194.342 29.73C194.082 28.8807 193.952 27.9533 193.952 26.948C193.952 25.9427 194.082 25.0067 194.342 24.14C194.602 23.256 194.992 22.4933 195.512 21.852C196.049 21.1933 196.716 20.682 197.514 20.318C198.311 19.9367 199.238 19.746 200.296 19.746C201.058 19.746 201.769 19.8413 202.428 20.032C203.104 20.2053 203.693 20.4827 204.196 20.864C204.716 21.2453 205.14 21.7307 205.47 22.32C205.799 22.892 206.007 23.5767 206.094 24.374H203.806ZM217.77 24.374C217.597 23.5247 217.233 22.866 216.678 22.398C216.124 21.93 215.378 21.696 214.442 21.696C213.645 21.696 212.978 21.8433 212.44 22.138C211.903 22.4327 211.47 22.8227 211.14 23.308C210.828 23.7933 210.603 24.3567 210.464 24.998C210.326 25.622 210.256 26.272 210.256 26.948C210.256 27.572 210.326 28.1787 210.464 28.768C210.62 29.3573 210.854 29.886 211.166 30.354C211.478 30.8047 211.886 31.1687 212.388 31.446C212.891 31.7233 213.489 31.862 214.182 31.862C215.274 31.862 216.124 31.576 216.73 31.004C217.354 30.432 217.736 29.626 217.874 28.586H220.136C219.894 30.25 219.27 31.5327 218.264 32.434C217.276 33.3353 215.924 33.786 214.208 33.786C213.186 33.786 212.276 33.6213 211.478 33.292C210.698 32.9627 210.04 32.4947 209.502 31.888C208.982 31.2813 208.584 30.562 208.306 29.73C208.046 28.8807 207.916 27.9533 207.916 26.948C207.916 25.9427 208.046 25.0067 208.306 24.14C208.566 23.256 208.956 22.4933 209.476 21.852C210.014 21.1933 210.681 20.682 211.478 20.318C212.276 19.9367 213.203 19.746 214.26 19.746C215.023 19.746 215.734 19.8413 216.392 20.032C217.068 20.2053 217.658 20.4827 218.16 20.864C218.68 21.2453 219.105 21.7307 219.434 22.32C219.764 22.892 219.972 23.5767 220.058 24.374H217.77ZM231.943 25.492C231.909 24.972 231.787 24.478 231.579 24.01C231.389 23.542 231.12 23.1433 230.773 22.814C230.444 22.4673 230.045 22.1987 229.577 22.008C229.127 21.8 228.624 21.696 228.069 21.696C227.497 21.696 226.977 21.8 226.509 22.008C226.059 22.1987 225.669 22.4673 225.339 22.814C225.01 23.1607 224.75 23.568 224.559 24.036C224.369 24.4867 224.256 24.972 224.221 25.492H231.943ZM234.075 29.236C233.781 30.744 233.131 31.8793 232.125 32.642C231.12 33.4047 229.855 33.786 228.329 33.786C227.255 33.786 226.319 33.6127 225.521 33.266C224.741 32.9193 224.083 32.434 223.545 31.81C223.008 31.186 222.601 30.4407 222.323 29.574C222.063 28.7073 221.916 27.7627 221.881 26.74C221.881 25.7173 222.037 24.7813 222.349 23.932C222.661 23.0827 223.095 22.346 223.649 21.722C224.221 21.098 224.889 20.6127 225.651 20.266C226.431 19.9193 227.281 19.746 228.199 19.746C229.395 19.746 230.383 19.9973 231.163 20.5C231.961 20.9853 232.593 21.6093 233.061 22.372C233.547 23.1347 233.876 23.9667 234.049 24.868C234.24 25.7693 234.318 26.6273 234.283 27.442H224.221C224.204 28.0313 224.273 28.5947 224.429 29.132C224.585 29.652 224.837 30.12 225.183 30.536C225.53 30.9347 225.972 31.2553 226.509 31.498C227.047 31.7407 227.679 31.862 228.407 31.862C229.343 31.862 230.106 31.6453 230.695 31.212C231.302 30.7787 231.701 30.12 231.891 29.236H234.075ZM237.926 29.262C237.943 29.7473 238.056 30.1633 238.264 30.51C238.472 30.8393 238.741 31.108 239.07 31.316C239.417 31.5067 239.798 31.6453 240.214 31.732C240.647 31.8187 241.089 31.862 241.54 31.862C241.887 31.862 242.251 31.836 242.632 31.784C243.013 31.732 243.36 31.6367 243.672 31.498C244.001 31.3593 244.27 31.16 244.478 30.9C244.686 30.6227 244.79 30.276 244.79 29.86C244.79 29.288 244.573 28.8547 244.14 28.56C243.707 28.2653 243.161 28.0313 242.502 27.858C241.861 27.6673 241.159 27.5027 240.396 27.364C239.633 27.208 238.923 27 238.264 26.74C237.623 26.4627 237.085 26.0813 236.652 25.596C236.219 25.1107 236.002 24.4347 236.002 23.568C236.002 22.892 236.149 22.3113 236.444 21.826C236.756 21.3407 237.146 20.9507 237.614 20.656C238.099 20.344 238.637 20.1187 239.226 19.98C239.833 19.824 240.431 19.746 241.02 19.746C241.783 19.746 242.485 19.8153 243.126 19.954C243.767 20.0753 244.331 20.3007 244.816 20.63C245.319 20.942 245.717 21.3753 246.012 21.93C246.307 22.4673 246.48 23.1433 246.532 23.958H244.322C244.287 23.5247 244.175 23.1693 243.984 22.892C243.793 22.5973 243.551 22.3633 243.256 22.19C242.961 22.0167 242.632 21.8953 242.268 21.826C241.921 21.7393 241.566 21.696 241.202 21.696C240.873 21.696 240.535 21.722 240.188 21.774C239.859 21.826 239.555 21.9213 239.278 22.06C239.001 22.1813 238.775 22.3547 238.602 22.58C238.429 22.788 238.342 23.0653 238.342 23.412C238.342 23.7933 238.472 24.114 238.732 24.374C239.009 24.6167 239.356 24.8247 239.772 24.998C240.188 25.154 240.656 25.2927 241.176 25.414C241.696 25.518 242.216 25.6307 242.736 25.752C243.291 25.8733 243.828 26.0207 244.348 26.194C244.885 26.3673 245.353 26.6013 245.752 26.896C246.168 27.1733 246.497 27.5287 246.74 27.962C247 28.3953 247.13 28.9327 247.13 29.574C247.13 30.3887 246.957 31.0647 246.61 31.602C246.281 32.1393 245.839 32.5727 245.284 32.902C244.747 33.2313 244.131 33.4567 243.438 33.578C242.762 33.7167 242.086 33.786 241.41 33.786C240.665 33.786 239.954 33.708 239.278 33.552C238.602 33.396 238.004 33.1447 237.484 32.798C236.964 32.434 236.548 31.966 236.236 31.394C235.924 30.8047 235.751 30.094 235.716 29.262H237.926ZM250.926 29.262C250.943 29.7473 251.056 30.1633 251.264 30.51C251.472 30.8393 251.741 31.108 252.07 31.316C252.417 31.5067 252.798 31.6453 253.214 31.732C253.647 31.8187 254.089 31.862 254.54 31.862C254.887 31.862 255.251 31.836 255.632 31.784C256.013 31.732 256.36 31.6367 256.672 31.498C257.001 31.3593 257.27 31.16 257.478 30.9C257.686 30.6227 257.79 30.276 257.79 29.86C257.79 29.288 257.573 28.8547 257.14 28.56C256.707 28.2653 256.161 28.0313 255.502 27.858C254.861 27.6673 254.159 27.5027 253.396 27.364C252.633 27.208 251.923 27 251.264 26.74C250.623 26.4627 250.085 26.0813 249.652 25.596C249.219 25.1107 249.002 24.4347 249.002 23.568C249.002 22.892 249.149 22.3113 249.444 21.826C249.756 21.3407 250.146 20.9507 250.614 20.656C251.099 20.344 251.637 20.1187 252.226 19.98C252.833 19.824 253.431 19.746 254.02 19.746C254.783 19.746 255.485 19.8153 256.126 19.954C256.767 20.0753 257.331 20.3007 257.816 20.63C258.319 20.942 258.717 21.3753 259.012 21.93C259.307 22.4673 259.48 23.1433 259.532 23.958H257.322C257.287 23.5247 257.175 23.1693 256.984 22.892C256.793 22.5973 256.551 22.3633 256.256 22.19C255.961 22.0167 255.632 21.8953 255.268 21.826C254.921 21.7393 254.566 21.696 254.202 21.696C253.873 21.696 253.535 21.722 253.188 21.774C252.859 21.826 252.555 21.9213 252.278 22.06C252.001 22.1813 251.775 22.3547 251.602 22.58C251.429 22.788 251.342 23.0653 251.342 23.412C251.342 23.7933 251.472 24.114 251.732 24.374C252.009 24.6167 252.356 24.8247 252.772 24.998C253.188 25.154 253.656 25.2927 254.176 25.414C254.696 25.518 255.216 25.6307 255.736 25.752C256.291 25.8733 256.828 26.0207 257.348 26.194C257.885 26.3673 258.353 26.6013 258.752 26.896C259.168 27.1733 259.497 27.5287 259.74 27.962C260 28.3953 260.13 28.9327 260.13 29.574C260.13 30.3887 259.957 31.0647 259.61 31.602C259.281 32.1393 258.839 32.5727 258.284 32.902C257.747 33.2313 257.131 33.4567 256.438 33.578C255.762 33.7167 255.086 33.786 254.41 33.786C253.665 33.786 252.954 33.708 252.278 33.552C251.602 33.396 251.004 33.1447 250.484 32.798C249.964 32.434 249.548 31.966 249.236 31.394C248.924 30.8047 248.751 30.094 248.716 29.262H250.926ZM264.914 17.64H262.704V14.936H264.914V17.64ZM262.704 20.058H264.914V33.5H262.704V20.058ZM268.416 14.936H270.626V21.878H270.678C271.042 21.1327 271.614 20.5953 272.394 20.266C273.174 19.9193 274.032 19.746 274.968 19.746C276.008 19.746 276.909 19.9367 277.672 20.318C278.452 20.6993 279.093 21.2193 279.596 21.878C280.116 22.5193 280.506 23.2647 280.766 24.114C281.026 24.9633 281.156 25.8647 281.156 26.818C281.156 27.7713 281.026 28.6727 280.766 29.522C280.523 30.3713 280.142 31.1167 279.622 31.758C279.119 32.382 278.478 32.876 277.698 33.24C276.935 33.604 276.042 33.786 275.02 33.786C274.69 33.786 274.318 33.7513 273.902 33.682C273.503 33.6127 273.104 33.5 272.706 33.344C272.307 33.188 271.926 32.98 271.562 32.72C271.215 32.4427 270.92 32.1047 270.678 31.706H270.626V33.5H268.416V14.936ZM278.816 26.662C278.816 26.038 278.729 25.4313 278.556 24.842C278.4 24.2353 278.148 23.698 277.802 23.23C277.472 22.762 277.039 22.3893 276.502 22.112C275.982 21.8347 275.366 21.696 274.656 21.696C273.91 21.696 273.278 21.8433 272.758 22.138C272.238 22.4327 271.813 22.8227 271.484 23.308C271.154 23.776 270.912 24.3133 270.756 24.92C270.617 25.5267 270.548 26.142 270.548 26.766C270.548 27.4247 270.626 28.066 270.782 28.69C270.938 29.2967 271.18 29.834 271.51 30.302C271.856 30.77 272.298 31.1513 272.836 31.446C273.373 31.7233 274.023 31.862 274.786 31.862C275.548 31.862 276.181 31.7147 276.684 31.42C277.204 31.1253 277.62 30.7353 277.932 30.25C278.244 29.7647 278.469 29.21 278.608 28.586C278.746 27.962 278.816 27.3207 278.816 26.662ZM286.09 17.64H283.88V14.936H286.09V17.64ZM283.88 20.058H286.09V33.5H283.88V20.058ZM289.644 14.936H291.854V33.5H289.644V14.936ZM297.617 17.64H295.407V14.936H297.617V17.64ZM295.407 20.058H297.617V33.5H295.407V20.058ZM304.109 20.058H306.787V22.008H304.109V30.354C304.109 30.614 304.126 30.822 304.161 30.978C304.213 31.134 304.3 31.2553 304.421 31.342C304.542 31.4287 304.707 31.4893 304.915 31.524C305.14 31.5413 305.426 31.55 305.773 31.55H306.787V33.5H305.097C304.525 33.5 304.031 33.4653 303.615 33.396C303.216 33.3093 302.887 33.162 302.627 32.954C302.384 32.746 302.202 32.4513 302.081 32.07C301.96 31.6887 301.899 31.186 301.899 30.562V22.008H299.611V20.058H301.899V16.028H304.109V20.058ZM314.52 35.294C314.26 35.9527 314 36.5073 313.74 36.958C313.497 37.4087 313.22 37.7727 312.908 38.05C312.613 38.3447 312.275 38.5527 311.894 38.674C311.53 38.8127 311.105 38.882 310.62 38.882C310.36 38.882 310.1 38.8647 309.84 38.83C309.58 38.7953 309.329 38.7347 309.086 38.648V36.62C309.277 36.7067 309.493 36.776 309.736 36.828C309.996 36.8973 310.213 36.932 310.386 36.932C310.837 36.932 311.209 36.8193 311.504 36.594C311.816 36.386 312.05 36.0827 312.206 35.684L313.116 33.422L307.786 20.058H310.282L314.208 31.056H314.26L318.03 20.058H320.37L314.52 35.294ZM330.388 22.008H328.126V20.058H330.388V18.056C330.388 16.964 330.7 16.1407 331.324 15.586C331.966 15.014 332.893 14.728 334.106 14.728C334.314 14.728 334.548 14.7453 334.808 14.78C335.086 14.8147 335.328 14.8667 335.536 14.936V16.86C335.346 16.7907 335.138 16.7473 334.912 16.73C334.687 16.6953 334.479 16.678 334.288 16.678C333.751 16.678 333.335 16.782 333.04 16.99C332.746 17.198 332.598 17.5967 332.598 18.186V20.058H335.198V22.008H332.598V33.5H330.388V22.008ZM338.784 26.792C338.784 27.6067 338.888 28.3347 339.096 28.976C339.321 29.6 339.624 30.1287 340.006 30.562C340.387 30.978 340.829 31.2987 341.332 31.524C341.852 31.7493 342.398 31.862 342.97 31.862C343.542 31.862 344.079 31.7493 344.582 31.524C345.102 31.2987 345.552 30.978 345.934 30.562C346.315 30.1287 346.61 29.6 346.818 28.976C347.043 28.3347 347.156 27.6067 347.156 26.792C347.156 25.9773 347.043 25.258 346.818 24.634C346.61 23.9927 346.315 23.4553 345.934 23.022C345.552 22.5887 345.102 22.2593 344.582 22.034C344.079 21.8087 343.542 21.696 342.97 21.696C342.398 21.696 341.852 21.8087 341.332 22.034C340.829 22.2593 340.387 22.5887 340.006 23.022C339.624 23.4553 339.321 23.9927 339.096 24.634C338.888 25.258 338.784 25.9773 338.784 26.792ZM336.444 26.792C336.444 25.804 336.582 24.8853 336.86 24.036C337.137 23.1693 337.553 22.424 338.108 21.8C338.662 21.1587 339.347 20.656 340.162 20.292C340.976 19.928 341.912 19.746 342.97 19.746C344.044 19.746 344.98 19.928 345.778 20.292C346.592 20.656 347.277 21.1587 347.832 21.8C348.386 22.424 348.802 23.1693 349.08 24.036C349.357 24.8853 349.496 25.804 349.496 26.792C349.496 27.78 349.357 28.6987 349.08 29.548C348.802 30.3973 348.386 31.1427 347.832 31.784C347.277 32.408 346.592 32.902 345.778 33.266C344.98 33.6127 344.044 33.786 342.97 33.786C341.912 33.786 340.976 33.6127 340.162 33.266C339.347 32.902 338.662 32.408 338.108 31.784C337.553 31.1427 337.137 30.3973 336.86 29.548C336.582 28.6987 336.444 27.78 336.444 26.792ZM352.024 20.058H354.104V22.892H354.156C354.693 21.8 355.352 20.994 356.132 20.474C356.912 19.954 357.9 19.7113 359.096 19.746V22.086C358.212 22.086 357.458 22.2073 356.834 22.45C356.21 22.6927 355.707 23.048 355.326 23.516C354.944 23.984 354.667 24.556 354.494 25.232C354.32 25.8907 354.234 26.6533 354.234 27.52V33.5H352.024V20.058ZM63.742 48.058H65.952V49.878H66.004C66.368 49.1327 66.94 48.5953 67.72 48.266C68.5 47.9193 69.358 47.746 70.294 47.746C71.334 47.746 72.2353 47.9367 72.998 48.318C73.778 48.6993 74.4193 49.2193 74.922 49.878C75.442 50.5193 75.832 51.2647 76.092 52.114C76.352 52.9633 76.482 53.8647 76.482 54.818C76.482 55.7713 76.352 56.6727 76.092 57.522C75.8493 58.3713 75.468 59.1167 74.948 59.758C74.4453 60.382 73.804 60.876 73.024 61.24C72.2613 61.604 71.3687 61.786 70.346 61.786C70.0167 61.786 69.644 61.7513 69.228 61.682C68.8293 61.6127 68.4307 61.5 68.032 61.344C67.6333 61.188 67.252 60.98 66.888 60.72C66.5413 60.4427 66.2467 60.1047 66.004 59.706H65.952V66.622H63.742V48.058ZM74.142 54.662C74.142 54.038 74.0553 53.4313 73.882 52.842C73.726 52.2353 73.4747 51.698 73.128 51.23C72.7987 50.762 72.3653 50.3893 71.828 50.112C71.308 49.8347 70.6927 49.696 69.982 49.696C69.2367 49.696 68.604 49.8433 68.084 50.138C67.564 50.4327 67.1393 50.8227 66.81 51.308C66.4807 51.776 66.238 52.3133 66.082 52.92C65.9433 53.5267 65.874 54.142 65.874 54.766C65.874 55.4247 65.952 56.066 66.108 56.69C66.264 57.2967 66.5067 57.834 66.836 58.302C67.1827 58.77 67.6247 59.1513 68.162 59.446C68.6993 59.7233 69.3493 59.862 70.112 59.862C70.8747 59.862 71.5073 59.7147 72.01 59.42C72.53 59.1253 72.946 58.7353 73.258 58.25C73.57 57.7647 73.7953 57.21 73.934 56.586C74.0727 55.962 74.142 55.3207 74.142 54.662ZM88.4101 53.492C88.3754 52.972 88.2541 52.478 88.0461 52.01C87.8554 51.542 87.5868 51.1433 87.2401 50.814C86.9108 50.4673 86.5121 50.1987 86.0441 50.008C85.5934 49.8 85.0908 49.696 84.5361 49.696C83.9641 49.696 83.4441 49.8 82.9761 50.008C82.5254 50.1987 82.1354 50.4673 81.8061 50.814C81.4768 51.1607 81.2168 51.568 81.0261 52.036C80.8354 52.4867 80.7228 52.972 80.6881 53.492H88.4101ZM90.5421 57.236C90.2474 58.744 89.5974 59.8793 88.5921 60.642C87.5868 61.4047 86.3214 61.786 84.7961 61.786C83.7214 61.786 82.7854 61.6127 81.9881 61.266C81.2081 60.9193 80.5494 60.434 80.0121 59.81C79.4748 59.186 79.0674 58.4407 78.7901 57.574C78.5301 56.7073 78.3828 55.7627 78.3481 54.74C78.3481 53.7173 78.5041 52.7813 78.8161 51.932C79.1281 51.0827 79.5614 50.346 80.1161 49.722C80.6881 49.098 81.3554 48.6127 82.1181 48.266C82.8981 47.9193 83.7474 47.746 84.6661 47.746C85.8621 47.746 86.8501 47.9973 87.6301 48.5C88.4274 48.9853 89.0601 49.6093 89.5281 50.372C90.0134 51.1347 90.3428 51.9667 90.5161 52.868C90.7068 53.7693 90.7848 54.6273 90.7501 55.442H80.6881C80.6708 56.0313 80.7401 56.5947 80.8961 57.132C81.0521 57.652 81.3034 58.12 81.6501 58.536C81.9968 58.9347 82.4388 59.2553 82.9761 59.498C83.5134 59.7407 84.1461 59.862 84.8741 59.862C85.8101 59.862 86.5728 59.6453 87.1621 59.212C87.7688 58.7787 88.1674 58.12 88.3581 57.236H90.5421ZM94.653 54.792C94.653 55.6067 94.757 56.3347 94.965 56.976C95.1903 57.6 95.4936 58.1287 95.875 58.562C96.2563 58.978 96.6983 59.2987 97.201 59.524C97.721 59.7493 98.267 59.862 98.839 59.862C99.411 59.862 99.9483 59.7493 100.451 59.524C100.971 59.2987 101.422 58.978 101.803 58.562C102.184 58.1287 102.479 57.6 102.687 56.976C102.912 56.3347 103.025 55.6067 103.025 54.792C103.025 53.9773 102.912 53.258 102.687 52.634C102.479 51.9927 102.184 51.4553 101.803 51.022C101.422 50.5887 100.971 50.2593 100.451 50.034C99.9483 49.8087 99.411 49.696 98.839 49.696C98.267 49.696 97.721 49.8087 97.201 50.034C96.6983 50.2593 96.2563 50.5887 95.875 51.022C95.4936 51.4553 95.1903 51.9927 94.965 52.634C94.757 53.258 94.653 53.9773 94.653 54.792ZM92.313 54.792C92.313 53.804 92.4516 52.8853 92.729 52.036C93.0063 51.1693 93.4223 50.424 93.977 49.8C94.5316 49.1587 95.2163 48.656 96.031 48.292C96.8456 47.928 97.7816 47.746 98.839 47.746C99.9136 47.746 100.85 47.928 101.647 48.292C102.462 48.656 103.146 49.1587 103.701 49.8C104.256 50.424 104.672 51.1693 104.949 52.036C105.226 52.8853 105.365 53.804 105.365 54.792C105.365 55.78 105.226 56.6987 104.949 57.548C104.672 58.3973 104.256 59.1427 103.701 59.784C103.146 60.408 102.462 60.902 101.647 61.266C100.85 61.6127 99.9136 61.786 98.839 61.786C97.7816 61.786 96.8456 61.6127 96.031 61.266C95.2163 60.902 94.5316 60.408 93.977 59.784C93.4223 59.1427 93.0063 58.3973 92.729 57.548C92.4516 56.6987 92.313 55.78 92.313 54.792ZM108.049 48.058H110.259V49.878H110.311C110.675 49.1327 111.247 48.5953 112.027 48.266C112.807 47.9193 113.665 47.746 114.601 47.746C115.641 47.746 116.542 47.9367 117.305 48.318C118.085 48.6993 118.726 49.2193 119.229 49.878C119.749 50.5193 120.139 51.2647 120.399 52.114C120.659 52.9633 120.789 53.8647 120.789 54.818C120.789 55.7713 120.659 56.6727 120.399 57.522C120.156 58.3713 119.775 59.1167 119.255 59.758C118.752 60.382 118.111 60.876 117.331 61.24C116.568 61.604 115.675 61.786 114.653 61.786C114.323 61.786 113.951 61.7513 113.535 61.682C113.136 61.6127 112.737 61.5 112.339 61.344C111.94 61.188 111.559 60.98 111.195 60.72C110.848 60.4427 110.553 60.1047 110.311 59.706H110.259V66.622H108.049V48.058ZM118.449 54.662C118.449 54.038 118.362 53.4313 118.189 52.842C118.033 52.2353 117.781 51.698 117.435 51.23C117.105 50.762 116.672 50.3893 116.135 50.112C115.615 49.8347 114.999 49.696 114.289 49.696C113.543 49.696 112.911 49.8433 112.391 50.138C111.871 50.4327 111.446 50.8227 111.117 51.308C110.787 51.776 110.545 52.3133 110.389 52.92C110.25 53.5267 110.181 54.142 110.181 54.766C110.181 55.4247 110.259 56.066 110.415 56.69C110.571 57.2967 110.813 57.834 111.143 58.302C111.489 58.77 111.931 59.1513 112.469 59.446C113.006 59.7233 113.656 59.862 114.419 59.862C115.181 59.862 115.814 59.7147 116.317 59.42C116.837 59.1253 117.253 58.7353 117.565 58.25C117.877 57.7647 118.102 57.21 118.241 56.586C118.379 55.962 118.449 55.3207 118.449 54.662ZM123.513 42.936H125.723V61.5H123.513V42.936ZM138.48 53.492C138.446 52.972 138.324 52.478 138.116 52.01C137.926 51.542 137.657 51.1433 137.31 50.814C136.981 50.4673 136.582 50.1987 136.114 50.008C135.664 49.8 135.161 49.696 134.606 49.696C134.034 49.696 133.514 49.8 133.046 50.008C132.596 50.1987 132.206 50.4673 131.876 50.814C131.547 51.1607 131.287 51.568 131.096 52.036C130.906 52.4867 130.793 52.972 130.758 53.492H138.48ZM140.612 57.236C140.318 58.744 139.668 59.8793 138.662 60.642C137.657 61.4047 136.392 61.786 134.866 61.786C133.792 61.786 132.856 61.6127 132.058 61.266C131.278 60.9193 130.62 60.434 130.082 59.81C129.545 59.186 129.138 58.4407 128.86 57.574C128.6 56.7073 128.453 55.7627 128.418 54.74C128.418 53.7173 128.574 52.7813 128.886 51.932C129.198 51.0827 129.632 50.346 130.186 49.722C130.758 49.098 131.426 48.6127 132.188 48.266C132.968 47.9193 133.818 47.746 134.736 47.746C135.932 47.746 136.92 47.9973 137.7 48.5C138.498 48.9853 139.13 49.6093 139.598 50.372C140.084 51.1347 140.413 51.9667 140.586 52.868C140.777 53.7693 140.855 54.6273 140.82 55.442H130.758C130.741 56.0313 130.81 56.5947 130.966 57.132C131.122 57.652 131.374 58.12 131.72 58.536C132.067 58.9347 132.509 59.2553 133.046 59.498C133.584 59.7407 134.216 59.862 134.944 59.862C135.88 59.862 136.643 59.6453 137.232 59.212C137.839 58.7787 138.238 58.12 138.428 57.236H140.612ZM163.66 61.5H161.32L158.59 50.814H158.538L155.834 61.5H153.442L149.126 48.058H151.57L154.612 59.056H154.664L157.368 48.058H159.786L162.594 59.056H162.646L165.662 48.058H167.95L163.66 61.5ZM172.391 45.64H170.181V42.936H172.391V45.64ZM170.181 48.058H172.391V61.5H170.181V48.058ZM178.882 48.058H181.56V50.008H178.882V58.354C178.882 58.614 178.9 58.822 178.934 58.978C178.986 59.134 179.073 59.2553 179.194 59.342C179.316 59.4287 179.48 59.4893 179.688 59.524C179.914 59.5413 180.2 59.55 180.546 59.55H181.56V61.5H179.87C179.298 61.5 178.804 61.4653 178.388 61.396C177.99 61.3093 177.66 61.162 177.4 60.954C177.158 60.746 176.976 60.4513 176.854 60.07C176.733 59.6887 176.672 59.186 176.672 58.562V50.008H174.384V48.058H176.672V44.028H178.882V48.058ZM184.016 42.936H186.226V50.034H186.278C186.451 49.618 186.694 49.2713 187.006 48.994C187.318 48.6993 187.664 48.4653 188.046 48.292C188.444 48.1013 188.852 47.9627 189.268 47.876C189.701 47.7893 190.117 47.746 190.516 47.746C191.4 47.746 192.136 47.8673 192.726 48.11C193.315 48.3527 193.792 48.6907 194.156 49.124C194.52 49.5573 194.771 50.0773 194.91 50.684C195.066 51.2733 195.144 51.932 195.144 52.66V61.5H192.934V52.4C192.934 51.568 192.691 50.9093 192.206 50.424C191.72 49.9387 191.053 49.696 190.204 49.696C189.528 49.696 188.938 49.8 188.436 50.008C187.95 50.216 187.543 50.5107 187.214 50.892C186.884 51.2733 186.633 51.724 186.46 52.244C186.304 52.7467 186.226 53.3013 186.226 53.908V61.5H184.016V42.936ZM208.533 59.42H212.641C212.918 59.42 213.265 59.4027 213.681 59.368C214.097 59.316 214.539 59.212 215.007 59.056C215.475 58.8827 215.934 58.64 216.385 58.328C216.853 58.016 217.269 57.5913 217.633 57.054C217.997 56.5167 218.292 55.8493 218.517 55.052C218.76 54.2373 218.881 53.258 218.881 52.114C218.881 51.0047 218.768 50.0167 218.543 49.15C218.335 48.266 217.98 47.5207 217.477 46.914C216.992 46.29 216.359 45.822 215.579 45.51C214.799 45.1807 213.837 45.016 212.693 45.016H208.533V59.42ZM206.063 42.936H212.433C215.293 42.936 217.494 43.664 219.037 45.12C220.58 46.576 221.351 48.7947 221.351 51.776C221.351 53.336 221.178 54.7227 220.831 55.936C220.484 57.132 219.947 58.146 219.219 58.978C218.491 59.7927 217.564 60.4167 216.437 60.85C215.31 61.2833 213.976 61.5 212.433 61.5H206.063V42.936ZM229.284 63.294C229.024 63.9527 228.764 64.5073 228.504 64.958C228.261 65.4087 227.984 65.7727 227.672 66.05C227.377 66.3447 227.039 66.5527 226.658 66.674C226.294 66.8127 225.869 66.882 225.384 66.882C225.124 66.882 224.864 66.8647 224.604 66.83C224.344 66.7953 224.092 66.7347 223.85 66.648V64.62C224.04 64.7067 224.257 64.776 224.5 64.828C224.76 64.8973 224.976 64.932 225.15 64.932C225.6 64.932 225.973 64.8193 226.268 64.594C226.58 64.386 226.814 64.0827 226.97 63.684L227.88 61.422L222.55 48.058H225.046L228.972 59.056H229.024L232.794 48.058H235.134L229.284 63.294ZM238.358 57.262C238.375 57.7473 238.488 58.1633 238.696 58.51C238.904 58.8393 239.172 59.108 239.502 59.316C239.848 59.5067 240.23 59.6453 240.646 59.732C241.079 59.8187 241.521 59.862 241.972 59.862C242.318 59.862 242.682 59.836 243.064 59.784C243.445 59.732 243.792 59.6367 244.104 59.498C244.433 59.3593 244.702 59.16 244.91 58.9C245.118 58.6227 245.222 58.276 245.222 57.86C245.222 57.288 245.005 56.8547 244.572 56.56C244.138 56.2653 243.592 56.0313 242.934 55.858C242.292 55.6673 241.59 55.5027 240.828 55.364C240.065 55.208 239.354 55 238.696 54.74C238.054 54.4627 237.517 54.0813 237.084 53.596C236.65 53.1107 236.434 52.4347 236.434 51.568C236.434 50.892 236.581 50.3113 236.876 49.826C237.188 49.3407 237.578 48.9507 238.046 48.656C238.531 48.344 239.068 48.1187 239.658 47.98C240.264 47.824 240.862 47.746 241.452 47.746C242.214 47.746 242.916 47.8153 243.558 47.954C244.199 48.0753 244.762 48.3007 245.248 48.63C245.75 48.942 246.149 49.3753 246.444 49.93C246.738 50.4673 246.912 51.1433 246.964 51.958H244.754C244.719 51.5247 244.606 51.1693 244.416 50.892C244.225 50.5973 243.982 50.3633 243.688 50.19C243.393 50.0167 243.064 49.8953 242.7 49.826C242.353 49.7393 241.998 49.696 241.634 49.696C241.304 49.696 240.966 49.722 240.62 49.774C240.29 49.826 239.987 49.9213 239.71 50.06C239.432 50.1813 239.207 50.3547 239.034 50.58C238.86 50.788 238.774 51.0653 238.774 51.412C238.774 51.7933 238.904 52.114 239.164 52.374C239.441 52.6167 239.788 52.8247 240.204 52.998C240.62 53.154 241.088 53.2927 241.608 53.414C242.128 53.518 242.648 53.6307 243.168 53.752C243.722 53.8733 244.26 54.0207 244.78 54.194C245.317 54.3673 245.785 54.6013 246.184 54.896C246.6 55.1733 246.929 55.5287 247.172 55.962C247.432 56.3953 247.562 56.9327 247.562 57.574C247.562 58.3887 247.388 59.0647 247.042 59.602C246.712 60.1393 246.27 60.5727 245.716 60.902C245.178 61.2313 244.563 61.4567 243.87 61.578C243.194 61.7167 242.518 61.786 241.842 61.786C241.096 61.786 240.386 61.708 239.71 61.552C239.034 61.396 238.436 61.1447 237.916 60.798C237.396 60.434 236.98 59.966 236.668 59.394C236.356 58.8047 236.182 58.094 236.148 57.262H238.358ZM250.136 42.936H252.346V61.5H250.136V42.936ZM265.103 53.492C265.069 52.972 264.947 52.478 264.739 52.01C264.549 51.542 264.28 51.1433 263.933 50.814C263.604 50.4673 263.205 50.1987 262.737 50.008C262.287 49.8 261.784 49.696 261.229 49.696C260.657 49.696 260.137 49.8 259.669 50.008C259.219 50.1987 258.829 50.4673 258.499 50.814C258.17 51.1607 257.91 51.568 257.719 52.036C257.529 52.4867 257.416 52.972 257.381 53.492H265.103ZM267.235 57.236C266.941 58.744 266.291 59.8793 265.285 60.642C264.28 61.4047 263.015 61.786 261.489 61.786C260.415 61.786 259.479 61.6127 258.681 61.266C257.901 60.9193 257.243 60.434 256.705 59.81C256.168 59.186 255.761 58.4407 255.483 57.574C255.223 56.7073 255.076 55.7627 255.041 54.74C255.041 53.7173 255.197 52.7813 255.509 51.932C255.821 51.0827 256.255 50.346 256.809 49.722C257.381 49.098 258.049 48.6127 258.811 48.266C259.591 47.9193 260.441 47.746 261.359 47.746C262.555 47.746 263.543 47.9973 264.323 48.5C265.121 48.9853 265.753 49.6093 266.221 50.372C266.707 51.1347 267.036 51.9667 267.209 52.868C267.4 53.7693 267.478 54.6273 267.443 55.442H257.381C257.364 56.0313 257.433 56.5947 257.589 57.132C257.745 57.652 257.997 58.12 258.343 58.536C258.69 58.9347 259.132 59.2553 259.669 59.498C260.207 59.7407 260.839 59.862 261.567 59.862C262.503 59.862 263.266 59.6453 263.855 59.212C264.462 58.7787 264.861 58.12 265.051 57.236H267.235ZM273.348 54.428L268.668 48.058H271.502L274.726 52.764L278.08 48.058H280.732L276.104 54.246L281.304 61.5H278.47L274.726 55.936L270.982 61.5H268.304L273.348 54.428ZM285.531 45.64H283.321V42.936H285.531V45.64ZM283.321 48.058H285.531V61.5H283.321V48.058ZM300.863 61.448C300.482 61.6733 299.953 61.786 299.277 61.786C298.705 61.786 298.246 61.63 297.899 61.318C297.57 60.9887 297.405 60.46 297.405 59.732C296.798 60.46 296.088 60.9887 295.273 61.318C294.476 61.63 293.609 61.786 292.673 61.786C292.066 61.786 291.486 61.7167 290.931 61.578C290.394 61.4393 289.926 61.2227 289.527 60.928C289.128 60.6333 288.808 60.252 288.565 59.784C288.34 59.2987 288.227 58.718 288.227 58.042C288.227 57.2793 288.357 56.6553 288.617 56.17C288.877 55.6847 289.215 55.2947 289.631 55C290.064 54.688 290.55 54.454 291.087 54.298C291.642 54.142 292.205 54.012 292.777 53.908C293.384 53.7867 293.956 53.7 294.493 53.648C295.048 53.5787 295.533 53.492 295.949 53.388C296.365 53.2667 296.694 53.102 296.937 52.894C297.18 52.6687 297.301 52.348 297.301 51.932C297.301 51.4467 297.206 51.0567 297.015 50.762C296.842 50.4673 296.608 50.242 296.313 50.086C296.036 49.93 295.715 49.826 295.351 49.774C295.004 49.722 294.658 49.696 294.311 49.696C293.375 49.696 292.595 49.878 291.971 50.242C291.347 50.5887 291.009 51.256 290.957 52.244H288.747C288.782 51.412 288.955 50.71 289.267 50.138C289.579 49.566 289.995 49.1067 290.515 48.76C291.035 48.396 291.624 48.136 292.283 47.98C292.959 47.824 293.678 47.746 294.441 47.746C295.048 47.746 295.646 47.7893 296.235 47.876C296.842 47.9627 297.388 48.1447 297.873 48.422C298.358 48.682 298.748 49.0547 299.043 49.54C299.338 50.0253 299.485 50.658 299.485 51.438V58.354C299.485 58.874 299.511 59.2553 299.563 59.498C299.632 59.7407 299.84 59.862 300.187 59.862C300.378 59.862 300.603 59.8187 300.863 59.732V61.448ZM297.275 54.558C296.998 54.766 296.634 54.922 296.183 55.026C295.732 55.1127 295.256 55.1907 294.753 55.26C294.268 55.312 293.774 55.3813 293.271 55.468C292.768 55.5373 292.318 55.6587 291.919 55.832C291.52 56.0053 291.191 56.2567 290.931 56.586C290.688 56.898 290.567 57.3313 290.567 57.886C290.567 58.25 290.636 58.562 290.775 58.822C290.931 59.0647 291.122 59.264 291.347 59.42C291.59 59.576 291.867 59.6887 292.179 59.758C292.491 59.8273 292.82 59.862 293.167 59.862C293.895 59.862 294.519 59.7667 295.039 59.576C295.559 59.368 295.984 59.1167 296.313 58.822C296.642 58.51 296.885 58.1807 297.041 57.834C297.197 57.47 297.275 57.132 297.275 56.82V54.558Z" fill="white"/>
</svg>
